<svg width="430" height="534" viewBox="0 0 430 534" fill="none" xmlns="http://www.w3.org/2000/svg">
<rect x="-11.5032" y="84.2369" width="228.08" height="182.048" transform="rotate(-5.49903 -11.5032 84.2369)" fill="white" stroke="black" stroke-width="0.452292"/>
<rect x="-12.6458" y="72.3778" width="236.203" height="12.0032" transform="rotate(-5.49903 -12.6458 72.3778)" fill="#515151" stroke="black" stroke-width="0.452292"/>
<rect x="215.489" y="62.9278" width="8.21242" height="189.63" transform="rotate(-5.49903 215.489 62.9278)" stroke="black" stroke-width="0.452292"/>
<rect x="215.438" y="62.3886" width="8.21242" height="173.925" transform="rotate(-5.49903 215.438 62.3886)" fill="#515151" stroke="black" stroke-width="0.452292"/>
<rect x="216.27" y="71.0134" width="8.21242" height="121.395" transform="rotate(-5.49903 216.27 71.0134)" stroke="black" stroke-width="0.452292"/>
<rect x="220.366" y="113.599" width="8.21242" height="78.6132" transform="rotate(-5.49903 220.366 113.599)" fill="#C8C8C8" stroke="black" stroke-width="0.452292"/>
<rect x="241.05" y="242.723" width="8.21243" height="236.203" transform="rotate(84.501 241.05 242.723)" fill="#C8C8C8" stroke="black" stroke-width="0.452292"/>
<rect x="224.34" y="244.332" width="8.21243" height="192.879" transform="rotate(84.501 224.34 244.332)" fill="#515151" stroke="black" stroke-width="0.452292"/>
<rect x="41.0602" y="261.977" width="8.21242" height="8.75397" transform="rotate(84.501 41.0602 261.977)" fill="#C8C8C8" stroke="black" stroke-width="0.452292"/>
<rect x="232.965" y="243.502" width="8.21242" height="8.75397" transform="rotate(84.501 232.965 243.502)" fill="#C8C8C8" stroke="black" stroke-width="0.452292"/>
<rect x="240.271" y="234.638" width="8.21242" height="8.21242" transform="rotate(84.501 240.271 234.638)" fill="#C8C8C8" stroke="black" stroke-width="0.452292"/>
<rect x="223.613" y="61.6018" width="8.75397" height="8.21242" transform="rotate(84.501 223.613 61.6018)" fill="#C8C8C8" stroke="black" stroke-width="0.452292"/>
<rect x="161.271" y="250.404" width="8.21243" height="120.854" transform="rotate(84.501 161.271 250.404)" fill="#515151" stroke="black" stroke-width="0.452292"/>
<rect x="161.271" y="250.404" width="8.21243" height="60.7423" transform="rotate(84.501 161.271 250.404)" fill="#C8C8C8" stroke="black" stroke-width="0.452292"/>
<circle cx="-1.78409" cy="77.3614" r="2.43695" transform="rotate(-5.49903 -1.78409 77.3614)" fill="black"/>
<circle cx="5.22372" cy="76.6868" r="2.21081" transform="rotate(-5.49903 5.22372 76.6868)" fill="white" stroke="black" stroke-width="0.452292"/>
<circle cx="12.2335" cy="76.0119" r="2.21081" transform="rotate(-5.49903 12.2335 76.0119)" fill="white" stroke="black" stroke-width="0.452292"/>
<path d="M94.8342 69.5891C94.5111 69.6202 94.2237 69.5805 93.972 69.47C93.7238 69.3592 93.5234 69.1924 93.3708 68.9696C93.2179 68.7432 93.1267 68.4773 93.0973 68.1717L92.8772 65.8852L93.6042 65.8152L93.8238 68.0965C93.8421 68.2861 93.8915 68.4498 93.9721 68.5873C94.0527 68.7249 94.1601 68.828 94.2943 68.8966C94.4321 68.9649 94.5922 68.9902 94.7749 68.9726C94.961 68.9547 95.1136 68.901 95.2326 68.8116C95.3513 68.7186 95.4372 68.5987 95.4904 68.4518C95.5433 68.3014 95.5604 68.1296 95.5418 67.9364L95.3217 65.6499L96.0488 65.5799L96.2689 67.8664C96.299 68.179 96.2588 68.4611 96.1483 68.7128C96.0375 68.961 95.8689 69.1615 95.6426 69.3145C95.4198 69.4671 95.1503 69.5586 94.8342 69.5891ZM93.0036 65.8731L92.9863 66.4118L92.68 66.3775C92.6298 66.3717 92.5894 66.3578 92.559 66.3359C92.532 66.3137 92.5162 66.278 92.5114 66.2288L92.482 65.9233L93.0036 65.8731ZM93.9993 65.7772L94.0288 66.0828C94.0335 66.1319 94.023 66.1702 93.9973 66.1975C93.9715 66.2248 93.9363 66.2459 93.8917 66.2608L93.5922 66.3534L93.4778 65.8274L93.9993 65.7772ZM95.4482 65.6377L95.4309 66.1764L95.1245 66.1421C95.0743 66.1363 95.034 66.1225 95.0035 66.1006C94.9766 66.0784 94.9607 66.0427 94.956 65.9935L94.9266 65.6879L95.4482 65.6377ZM96.4439 65.5419L96.4733 65.8474C96.478 65.8966 96.4675 65.9348 96.4418 65.9621C96.4196 65.9891 96.3844 66.0102 96.3362 66.0255L96.042 66.1176L95.9223 65.5921L96.4439 65.5419ZM97.4588 69.2938L97.1981 66.5859L97.6038 66.5468C97.6951 66.538 97.7552 66.573 97.784 66.6518L97.847 66.8637C97.9482 66.737 98.0624 66.6338 98.1894 66.5542C98.3161 66.4712 98.469 66.421 98.6481 66.4037C98.8448 66.3848 99.0141 66.4128 99.1561 66.4878C99.3015 66.5624 99.4168 66.6736 99.5019 66.8214C99.587 66.9691 99.6392 67.1431 99.6585 67.3433L99.8243 69.0661L99.1553 69.1305L98.9894 67.4077C98.9738 67.2462 98.9248 67.1233 98.8422 67.0391C98.7597 66.9549 98.6429 66.92 98.4919 66.9346C98.383 66.945 98.2819 66.9814 98.1886 67.0435C98.0986 67.1018 98.0138 67.1791 97.9345 67.2753L98.1226 69.2299L97.4588 69.2938ZM97.0637 69.3319L97.0343 69.0263C97.0295 68.9771 97.0383 68.9391 97.0605 68.9121C97.0862 68.8848 97.1232 68.8636 97.1713 68.8483L97.4655 68.7562L97.5853 69.2817L97.0637 69.3319ZM97.9962 69.2421L98.0135 68.7034L98.3199 68.7377C98.37 68.7435 98.4086 68.7575 98.4356 68.7797C98.466 68.8016 98.4836 68.8372 98.4884 68.8863L98.5178 69.1919L97.9962 69.2421ZM99.6979 69.0783L99.7099 68.5401L100.022 68.5739C100.068 68.58 100.107 68.594 100.137 68.6159C100.168 68.6378 100.185 68.6733 100.19 68.7225L100.219 69.0281L99.6979 69.0783ZM97.3246 66.5737L97.3073 67.1124L97.0009 67.0781C96.9507 67.0723 96.9104 67.0584 96.8799 67.0366C96.853 67.0143 96.8371 66.9787 96.8324 66.9295L96.803 66.6239L97.3246 66.5737ZM101.507 68.9467C101.271 68.9693 101.082 68.9202 100.94 68.7992C100.8 68.6779 100.719 68.4996 100.697 68.2643L100.552 66.7575L100.278 66.7839C100.243 66.7873 100.212 66.7796 100.185 66.7609C100.158 66.7422 100.143 66.71 100.139 66.6644L100.113 66.4009L100.543 66.2851L100.61 65.5396C100.617 65.4645 100.662 65.4229 100.747 65.4148L101.089 65.3818L101.171 66.23L101.882 66.1615L101.927 66.6251L101.215 66.6936L101.356 68.1582C101.365 68.2425 101.392 68.3072 101.439 68.3524C101.485 68.394 101.544 68.4114 101.614 68.4046C101.653 68.4009 101.687 68.3905 101.717 68.3734C101.747 68.3528 101.776 68.3341 101.802 68.3174C101.829 68.3006 101.853 68.2912 101.874 68.2892C101.906 68.2861 101.936 68.3028 101.964 68.339L102.195 68.6411C102.107 68.724 102.004 68.7924 101.885 68.8464C101.766 68.9004 101.64 68.9338 101.507 68.9467ZM102.856 68.7743L102.595 66.0663L103.259 66.0024L103.52 68.7103L102.856 68.7743ZM102.461 68.8123L102.431 68.5067C102.427 68.4576 102.435 68.4195 102.458 68.3925C102.483 68.3652 102.52 68.344 102.568 68.3287L102.863 68.2366L102.982 68.7621L102.461 68.8123ZM103.393 68.7225L103.411 68.1838L103.717 68.2181C103.767 68.2239 103.806 68.2379 103.833 68.2602C103.863 68.282 103.881 68.3176 103.885 68.3667L103.915 68.6723L103.393 68.7225ZM102.722 66.0541L102.704 66.5928L102.398 66.5585C102.348 66.5527 102.307 66.5389 102.277 66.517C102.25 66.4948 102.234 66.4591 102.229 66.4099L102.2 66.1043L102.722 66.0541ZM102.902 65.6593C102.789 65.6701 102.687 65.6392 102.595 65.5665C102.503 65.4938 102.451 65.4013 102.441 65.2889C102.429 65.173 102.462 65.0706 102.539 64.9817C102.615 64.8893 102.709 64.8377 102.821 64.8269C102.937 64.8157 103.042 64.8482 103.134 64.9244C103.226 64.9971 103.278 65.0913 103.289 65.2072C103.3 65.3196 103.267 65.4203 103.19 65.5092C103.114 65.5981 103.018 65.6481 102.902 65.6593ZM105.206 68.5905C104.971 68.6132 104.782 68.564 104.639 68.4431C104.5 68.3218 104.419 68.1435 104.396 67.9082L104.251 66.4014L103.977 66.4278C103.942 66.4312 103.911 66.4235 103.884 66.4048C103.858 66.3861 103.842 66.3539 103.838 66.3082L103.812 66.0448L104.243 65.929L104.309 65.1835C104.316 65.1083 104.362 65.0667 104.446 65.0586L104.788 65.0257L104.87 65.8739L105.581 65.8054L105.626 66.269L104.915 66.3375L105.056 67.8021C105.064 67.8864 105.091 67.9511 105.138 67.9962C105.185 68.0378 105.243 68.0552 105.313 68.0485C105.352 68.0448 105.386 68.0344 105.417 68.0173C105.447 67.9967 105.475 67.978 105.502 67.9612C105.528 67.9445 105.552 67.9351 105.573 67.9331C105.605 67.93 105.635 67.9466 105.663 67.9829L105.894 68.285C105.807 68.3679 105.703 68.4363 105.585 68.4903C105.466 68.5443 105.339 68.5777 105.206 68.5905ZM106.555 68.4181L106.178 64.4984L106.842 64.4345L107.219 68.3542L106.555 68.4181ZM106.16 68.4562L106.131 68.1506C106.126 68.1014 106.135 68.0634 106.157 68.0364C106.182 68.0091 106.219 67.9878 106.268 67.9726L106.562 67.8804L106.682 68.406L106.16 68.4562ZM107.092 68.3664L107.11 67.8277L107.416 67.862C107.466 67.8678 107.505 67.8818 107.532 67.904C107.562 67.9259 107.58 67.9614 107.585 68.0106L107.614 68.3162L107.092 68.3664ZM106.304 64.4862L106.287 65.025L105.981 64.9906C105.93 64.9848 105.89 64.971 105.86 64.9491C105.833 64.9269 105.817 64.8912 105.812 64.842L105.783 64.5365L106.304 64.4862ZM109.189 68.207C108.919 68.2331 108.678 68.196 108.466 68.0959C108.254 67.9922 108.082 67.8369 107.948 67.63C107.818 67.4192 107.739 67.1698 107.711 66.8818C107.687 66.6289 107.72 66.3971 107.809 66.1864C107.898 65.9722 108.036 65.7977 108.221 65.6629C108.407 65.5245 108.629 65.4428 108.889 65.4178C109.124 65.3952 109.335 65.4263 109.52 65.5113C109.709 65.5924 109.859 65.7197 109.972 65.8932C110.088 66.0663 110.158 66.2794 110.182 66.5323C110.191 66.6271 110.189 66.6947 110.175 66.735C110.161 66.7718 110.12 66.7934 110.054 66.7999L108.394 66.9596C108.395 66.9702 108.396 66.9807 108.397 66.9912C108.398 67.0018 108.401 67.0121 108.405 67.0223C108.457 67.2655 108.55 67.4426 108.685 67.5537C108.824 67.6645 108.995 67.71 109.198 67.6904C109.293 67.6813 109.386 67.6529 109.477 67.6051C109.572 67.557 109.658 67.5097 109.735 67.4633C109.811 67.4134 109.874 67.3861 109.924 67.3813C109.973 67.3766 110.015 67.392 110.05 67.4276L110.269 67.6512C110.184 67.7692 110.082 67.8677 109.962 67.9466C109.845 68.0251 109.72 68.0851 109.586 68.1263C109.455 68.1673 109.323 68.1942 109.189 68.207ZM108.367 66.5635L109.573 66.4473C109.556 66.2717 109.495 66.1305 109.389 66.0237C109.283 65.917 109.137 65.8725 108.951 65.8905C108.764 65.9084 108.622 65.9753 108.523 66.0911C108.428 66.2066 108.376 66.3641 108.367 66.5635ZM111.605 67.9745C111.398 67.9945 111.213 67.9538 111.051 67.8524C110.892 67.7472 110.762 67.5948 110.661 67.3954C110.56 67.1959 110.497 66.9592 110.47 66.6853C110.445 66.4184 110.469 66.175 110.544 65.9551C110.618 65.7352 110.737 65.5536 110.901 65.4103C111.064 65.2669 111.264 65.1839 111.499 65.1613C111.65 65.1467 111.78 65.159 111.891 65.198C112 65.2335 112.101 65.2876 112.193 65.3603L112.056 63.9325L112.725 63.8681L113.102 67.7878L112.691 67.8274C112.604 67.8358 112.543 67.8008 112.511 67.7224L112.434 67.4694C112.337 67.6063 112.22 67.7203 112.084 67.8114C111.947 67.9026 111.787 67.9569 111.605 67.9745ZM111.781 67.4311C111.915 67.4183 112.026 67.3792 112.116 67.3139C112.205 67.2485 112.285 67.1611 112.356 67.0514L112.239 65.8344C112.157 65.7537 112.072 65.6999 111.984 65.6729C111.896 65.6458 111.803 65.6371 111.705 65.6465C111.568 65.6597 111.456 65.706 111.368 65.7854C111.283 65.8644 111.223 65.9748 111.187 66.1165C111.15 66.2547 111.142 66.4222 111.161 66.6188C111.188 66.8998 111.252 67.1098 111.354 67.2489C111.456 67.388 111.599 67.4487 111.781 67.4311ZM112.188 63.9198L112.17 64.4585L111.859 64.4247C111.812 64.4186 111.773 64.4046 111.743 64.3827C111.712 64.3608 111.695 64.3253 111.69 64.2761L111.661 63.9706L112.188 63.9198ZM112.971 67.8005L112.988 67.2618L113.299 67.2956C113.346 67.3017 113.385 67.3157 113.415 67.3376C113.446 67.3595 113.463 67.395 113.468 67.4442L113.497 67.7498L112.971 67.8005ZM113.711 66.3946L113.658 65.8466L115.028 65.7148L115.081 66.2627L113.711 66.3946ZM116.065 67.5026L116.038 67.2181C116.029 67.1303 116.07 67.0767 116.16 67.0574L116.786 66.9333L116.574 64.7258C116.57 64.6802 116.565 64.6363 116.561 64.5941C116.56 64.5481 116.559 64.5021 116.559 64.4561L116.06 64.9615C116.04 64.9811 116.019 64.9973 115.995 65.0102C115.971 65.0196 115.95 65.0251 115.933 65.0268C115.894 65.0305 115.858 65.0269 115.826 65.0159C115.796 65.001 115.771 64.9839 115.751 64.9645L115.513 64.7003L116.583 63.603L117.136 63.5498L117.456 66.8689L118.004 66.8746C118.096 66.8799 118.147 66.9264 118.155 67.0142L118.183 67.2987L116.065 67.5026Z" fill="black"/>
<path d="M15.3508 269.875L15.3362 269.724C15.3335 269.695 15.3365 269.663 15.3452 269.628C15.3564 269.593 15.3751 269.561 15.4014 269.532L16.1103 268.664C16.1862 268.572 16.2505 268.485 16.3031 268.402C16.3579 268.317 16.3981 268.231 16.4236 268.143C16.4516 268.056 16.4611 267.966 16.4523 267.875C16.4442 267.791 16.4231 267.723 16.389 267.67C16.3546 267.616 16.3086 267.578 16.2508 267.557C16.1928 267.533 16.1242 267.525 16.045 267.533C15.9465 267.542 15.8639 267.578 15.7972 267.64C15.7305 267.702 15.6893 267.778 15.6736 267.867C15.6612 267.914 15.644 267.949 15.6221 267.973C15.5999 267.995 15.5672 268.008 15.524 268.012C15.5048 268.014 15.4732 268.013 15.4293 268.01C15.3854 268.007 15.3145 268.001 15.2166 267.991C15.2291 267.742 15.3095 267.545 15.4579 267.4C15.6063 267.255 15.7981 267.171 16.0334 267.149C16.1943 267.133 16.339 267.151 16.4674 267.201C16.5957 267.25 16.6988 267.327 16.7769 267.433C16.8572 267.537 16.9046 267.664 16.9192 267.816C16.9312 267.941 16.9183 268.058 16.8804 268.168C16.8423 268.276 16.7882 268.381 16.718 268.482C16.6477 268.583 16.5704 268.687 16.486 268.792L15.9605 269.449C16.0165 269.427 16.0728 269.408 16.1295 269.393C16.1886 269.378 16.2434 269.368 16.2938 269.363L17.1042 269.285L17.1444 269.702L15.3508 269.875ZM16.7916 269.398L16.8102 269.138C16.8144 269.107 16.824 269.08 16.839 269.059C16.8539 269.039 16.8782 269.027 16.9118 269.023L17.0775 269.007L17.1046 269.288L16.7916 269.398ZM18.916 266.9L18.9344 267.091C18.9411 267.161 18.9235 267.217 18.8816 267.26C18.8418 267.3 18.7763 267.324 18.6851 267.333L17.9792 267.401L17.9411 267.95C17.9952 267.933 18.0484 267.919 18.1008 267.909C18.1532 267.899 18.2033 267.892 18.2514 267.887C18.4314 267.87 18.5861 267.89 18.7152 267.948C18.8466 268.003 18.9503 268.087 19.0265 268.198C19.105 268.309 19.1518 268.443 19.1668 268.599C19.1846 268.784 19.1582 268.95 19.0876 269.097C19.017 269.245 18.9122 269.365 18.7734 269.458C18.6343 269.549 18.4711 269.604 18.2838 269.622C18.1326 269.636 17.9868 269.62 17.8466 269.573C17.7087 269.526 17.5888 269.463 17.4869 269.386L17.6093 269.185C17.6388 269.139 17.6763 269.113 17.7219 269.109C17.7507 269.106 17.7853 269.112 17.8255 269.128C17.8682 269.143 17.9147 269.161 17.965 269.18C18.0178 269.199 18.0703 269.216 18.1226 269.23C18.177 269.242 18.2282 269.246 18.2763 269.241C18.3843 269.231 18.4711 269.2 18.5365 269.15C18.6042 269.098 18.6522 269.03 18.6806 268.948C18.7111 268.862 18.7214 268.768 18.7115 268.665C18.6979 268.523 18.6464 268.416 18.5571 268.345C18.4679 268.274 18.3452 268.246 18.1891 268.261C18.0619 268.273 17.9392 268.308 17.8212 268.365L17.529 268.313L17.623 267.025L18.916 266.9ZM20.4591 269.412C20.2742 269.43 20.1109 269.407 19.969 269.343C19.8271 269.279 19.7124 269.183 19.6248 269.053C19.537 268.921 19.4844 268.765 19.467 268.585C19.455 268.46 19.4681 268.331 19.5063 268.199C19.5442 268.065 19.6081 267.923 19.6979 267.774L20.2373 266.882C20.2562 266.851 20.2861 266.823 20.3273 266.797C20.3684 266.771 20.4166 266.756 20.4718 266.75L20.8752 266.712L20.221 267.694C20.2082 267.712 20.1902 267.74 20.1671 267.776C20.146 267.809 20.1282 267.838 20.1135 267.861C20.1611 267.827 20.213 267.8 20.2693 267.78C20.3255 267.76 20.3873 267.747 20.4545 267.741C20.5962 267.727 20.7276 267.746 20.8489 267.797C20.9723 267.846 21.0744 267.925 21.1551 268.033C21.2359 268.142 21.2842 268.279 21.3001 268.445C21.3161 268.61 21.2909 268.764 21.2246 268.906C21.1581 269.046 21.0589 269.161 20.9271 269.251C20.7952 269.341 20.6392 269.395 20.4591 269.412ZM20.4166 269.046C20.5102 269.037 20.5899 269.008 20.6556 268.961C20.7237 268.913 20.7747 268.851 20.8086 268.775C20.8424 268.699 20.855 268.616 20.8462 268.525C20.8319 268.376 20.7774 268.263 20.6829 268.188C20.5905 268.109 20.4723 268.077 20.3283 268.091C20.2394 268.1 20.1622 268.128 20.0964 268.175C20.0307 268.223 19.981 268.284 19.9471 268.36C19.9156 268.436 19.9042 268.52 19.913 268.611C19.9223 268.707 19.9472 268.789 19.9877 268.858C20.0307 268.927 20.0877 268.978 20.1589 269.012C20.2322 269.044 20.3181 269.055 20.4166 269.046ZM21.8447 269.25L21.5867 266.57L22.0405 266.527L22.1883 268.061L22.2711 268.053C22.3023 268.05 22.3259 268.043 22.3417 268.032C22.36 268.02 22.3765 268.003 22.3913 267.98L22.7834 267.371C22.8025 267.343 22.8223 267.321 22.8427 267.307C22.8653 267.291 22.8959 267.28 22.9343 267.277L23.3521 267.236L22.8528 267.979C22.8362 268.007 22.8169 268.033 22.7949 268.057C22.7752 268.078 22.7529 268.099 22.7281 268.118C22.7794 268.147 22.8259 268.19 22.8677 268.246L23.5591 269.085L23.1485 269.124C23.1149 269.128 23.0843 269.125 23.0567 269.115C23.0313 269.103 23.0077 269.083 22.9857 269.057L22.4577 268.406C22.4382 268.379 22.4184 268.362 22.3985 268.357C22.3808 268.349 22.3539 268.347 22.3179 268.35L22.217 268.36L22.2985 269.206L21.8447 269.25ZM22.989 267.657L22.7118 267.458L22.6966 267.3L23.226 267.249L23.0878 267.625L22.989 267.657ZM23.2422 269.115L23.0153 268.723L23.2651 268.75L23.2422 269.115ZM21.5746 269.276L21.5545 269.067C21.5512 269.033 21.5572 269.007 21.5724 268.989C21.59 268.97 21.6153 268.956 21.6482 268.945L21.8493 268.882L21.9312 269.242L21.5746 269.276ZM22.2121 269.215L22.2239 268.846L22.4333 268.87C22.4677 268.874 22.494 268.883 22.5124 268.899C22.5333 268.913 22.5453 268.938 22.5485 268.971L22.5687 269.18L22.2121 269.215ZM21.6732 266.562L21.6614 266.93L21.4519 266.907C21.4176 266.903 21.39 266.893 21.3692 266.878C21.3508 266.863 21.34 266.839 21.3367 266.805L21.3166 266.596L21.6732 266.562ZM23.3557 267.236L23.3758 267.445C23.379 267.479 23.3718 267.505 23.3543 267.523C23.3367 267.542 23.3114 267.557 23.2785 267.567L23.0774 267.63L22.9955 267.271L23.3557 267.236ZM22.8046 267.289L22.7928 267.657L22.5834 267.634C22.5491 267.63 22.5215 267.621 22.5007 267.606C22.4822 267.59 22.4714 267.566 22.4682 267.532L22.4481 267.323L22.8046 267.289ZM23.2422 269.115L23.254 268.747L23.4634 268.771C23.4977 268.775 23.5241 268.784 23.5425 268.799C23.5634 268.814 23.5754 268.839 23.5786 268.872L23.5987 269.081L23.2422 269.115Z" fill="black"/>
<path d="M34.671 266.717L38.8486 263.487L39.3879 269.089L34.671 266.717Z" fill="black"/>
<path d="M231.425 247.775L226.708 245.402L227.247 251.004L231.425 247.775Z" fill="black"/>
<path d="M236.785 241.274L239.158 236.557L233.556 237.097L236.785 241.274Z" fill="black"/>
<path d="M219.711 63.9263L222.94 68.1038L217.338 68.6431L219.711 63.9263Z" fill="black"/>
<rect x="245.557" y="59.4891" width="228.08" height="182.048" transform="rotate(-5.49903 245.557 59.4891)" fill="white" stroke="black" stroke-width="0.452292"/>
<rect x="244.415" y="47.6299" width="236.203" height="12.0032" transform="rotate(-5.49903 244.415 47.6299)" fill="#515151" stroke="black" stroke-width="0.452292"/>
<rect x="498.109" y="217.976" width="8.21243" height="236.203" transform="rotate(84.501 498.109 217.976)" fill="#C8C8C8" stroke="black" stroke-width="0.452292"/>
<rect x="481.4" y="219.584" width="8.21243" height="192.879" transform="rotate(84.501 481.4 219.584)" fill="#515151" stroke="black" stroke-width="0.452292"/>
<rect x="298.123" y="237.229" width="8.21242" height="8.75397" transform="rotate(84.501 298.123 237.229)" fill="#C8C8C8" stroke="black" stroke-width="0.452292"/>
<rect x="418.33" y="225.656" width="8.21243" height="120.854" transform="rotate(84.501 418.33 225.656)" fill="#515151" stroke="black" stroke-width="0.452292"/>
<rect x="418.33" y="225.656" width="8.21243" height="60.7423" transform="rotate(84.501 418.33 225.656)" fill="#C8C8C8" stroke="black" stroke-width="0.452292"/>
<circle cx="255.278" cy="52.6137" r="2.43695" transform="rotate(-5.49903 255.278 52.6137)" fill="black"/>
<circle cx="262.284" cy="51.939" r="2.21081" transform="rotate(-5.49903 262.284 51.939)" fill="white" stroke="black" stroke-width="0.452292"/>
<circle cx="269.292" cy="51.2644" r="2.21081" transform="rotate(-5.49903 269.292 51.2644)" fill="white" stroke="black" stroke-width="0.452292"/>
<path d="M351.897 44.8415C351.574 44.8726 351.286 44.8329 351.035 44.7224C350.786 44.6116 350.586 44.4448 350.433 44.222C350.28 43.9957 350.189 43.7297 350.16 43.4242L349.94 41.1377L350.667 41.0677L350.886 43.3489C350.905 43.5386 350.954 43.7022 351.035 43.8398C351.115 43.9774 351.223 44.0804 351.357 44.1491C351.495 44.2173 351.655 44.2427 351.837 44.2251C352.024 44.2072 352.176 44.1535 352.295 44.064C352.414 43.9711 352.5 43.8512 352.553 43.7042C352.606 43.5538 352.623 43.382 352.604 43.1888L352.384 40.9023L353.111 40.8323L353.331 43.1188C353.361 43.4314 353.321 43.7136 353.211 43.9653C353.1 44.2134 352.931 44.414 352.705 44.5669C352.482 44.7195 352.213 44.8111 351.897 44.8415ZM350.066 41.1255L350.049 41.6642L349.742 41.6299C349.692 41.6241 349.652 41.6103 349.621 41.5884C349.595 41.5662 349.579 41.5305 349.574 41.4813L349.545 41.1757L350.066 41.1255ZM351.062 41.0296L351.091 41.3352C351.096 41.3844 351.085 41.4226 351.06 41.4499C351.034 41.4772 350.999 41.4983 350.954 41.5132L350.655 41.6059L350.54 41.0799L351.062 41.0296ZM352.511 40.8902L352.493 41.4289L352.187 41.3946C352.137 41.3888 352.096 41.3749 352.066 41.353C352.039 41.3308 352.023 41.2951 352.018 41.2459L351.989 40.9404L352.511 40.8902ZM353.506 40.7943L353.536 41.0999C353.541 41.149 353.53 41.1873 353.504 41.2146C353.482 41.2415 353.447 41.2626 353.399 41.2779L353.105 41.37L352.985 40.8445L353.506 40.7943ZM354.521 44.5463L354.261 41.8383L354.666 41.7993C354.758 41.7905 354.818 41.8254 354.847 41.9042L354.909 42.1161C355.011 41.9894 355.125 41.8863 355.252 41.8067C355.379 41.7236 355.532 41.6734 355.711 41.6562C355.907 41.6372 356.077 41.6653 356.219 41.7402C356.364 41.8148 356.479 41.926 356.564 42.0738C356.65 42.2216 356.702 42.3956 356.721 42.5958L356.887 44.3185L356.218 44.383L356.052 42.6602C356.036 42.4986 355.987 42.3757 355.905 42.2915C355.822 42.2073 355.705 42.1725 355.554 42.187C355.445 42.1975 355.344 42.2338 355.251 42.2959C355.161 42.3542 355.076 42.4315 354.997 42.5278L355.185 44.4824L354.521 44.5463ZM354.126 44.5843L354.097 44.2788C354.092 44.2296 354.101 44.1915 354.123 44.1646C354.149 44.1373 354.186 44.116 354.234 44.1007L354.528 44.0086L354.648 44.5341L354.126 44.5843ZM355.059 44.4945L355.076 43.9558L355.382 43.9902C355.433 43.996 355.471 44.01 355.498 44.0322C355.529 44.0541 355.546 44.0896 355.551 44.1388L355.58 44.4443L355.059 44.4945ZM356.76 44.3307L356.772 43.7925L357.084 43.8263C357.131 43.8325 357.169 43.8465 357.2 43.8684C357.23 43.8902 357.248 43.9258 357.253 43.9749L357.282 44.2805L356.76 44.3307ZM354.387 41.8261L354.37 42.3648L354.063 42.3305C354.013 42.3247 353.973 42.3109 353.942 42.289C353.915 42.2668 353.9 42.2311 353.895 42.1819L353.865 41.8764L354.387 41.8261ZM358.569 44.1991C358.334 44.2218 358.145 44.1726 358.002 44.0517C357.863 43.9304 357.782 43.7521 357.759 43.5167L357.614 42.01L357.34 42.0363C357.305 42.0397 357.274 42.0321 357.248 42.0134C357.221 41.9946 357.205 41.9625 357.201 41.9168L357.176 41.6534L357.606 41.5375L357.672 40.792C357.679 40.7169 357.725 40.6753 357.809 40.6672L358.152 40.6342L358.233 41.4824L358.945 41.414L358.989 41.8776L358.278 41.9461L358.419 43.4107C358.427 43.495 358.455 43.5597 358.501 43.6048C358.548 43.6464 358.606 43.6638 358.677 43.6571C358.715 43.6533 358.75 43.6429 358.78 43.6258C358.81 43.6052 358.838 43.5866 358.865 43.5698C358.892 43.553 358.916 43.5437 358.937 43.5416C358.968 43.5386 358.998 43.5552 359.027 43.5915L359.258 43.8936C359.17 43.9764 359.067 44.0449 358.948 44.0989C358.829 44.1528 358.703 44.1863 358.569 44.1991ZM359.918 44.0267L359.658 41.3187L360.321 41.2548L360.582 43.9628L359.918 44.0267ZM359.523 44.0647L359.494 43.7592C359.489 43.71 359.498 43.6719 359.52 43.645C359.546 43.6177 359.583 43.5964 359.631 43.5811L359.925 43.489L360.045 44.0145L359.523 44.0647ZM360.456 43.975L360.473 43.4363L360.779 43.4706C360.83 43.4764 360.868 43.4904 360.895 43.5126C360.926 43.5345 360.943 43.57 360.948 43.6192L360.977 43.9247L360.456 43.975ZM359.784 41.3066L359.767 41.8453L359.46 41.8109C359.41 41.8051 359.37 41.7913 359.339 41.7694C359.313 41.7472 359.297 41.7115 359.292 41.6623L359.263 41.3568L359.784 41.3066ZM359.964 40.9117C359.852 40.9225 359.749 40.8916 359.657 40.8189C359.565 40.7463 359.514 40.6537 359.503 40.5413C359.492 40.4254 359.525 40.323 359.601 40.2341C359.677 40.1417 359.772 40.0901 359.884 40.0793C360 40.0681 360.104 40.1006 360.196 40.1768C360.289 40.2495 360.34 40.3438 360.351 40.4597C360.362 40.5721 360.329 40.6727 360.253 40.7616C360.176 40.8505 360.08 40.9005 359.964 40.9117ZM362.269 43.843C362.033 43.8656 361.844 43.8165 361.701 43.6955C361.562 43.5742 361.481 43.3959 361.458 43.1606L361.313 41.6538L361.039 41.6802C361.004 41.6836 360.973 41.6759 360.947 41.6572C360.92 41.6385 360.905 41.6063 360.9 41.5607L360.875 41.2973L361.305 41.1814L361.372 40.4359C361.379 40.3608 361.424 40.3192 361.508 40.3111L361.851 40.2781L361.933 41.1263L362.644 41.0578L362.688 41.5215L361.977 41.5899L362.118 43.0546C362.126 43.1388 362.154 43.2036 362.201 43.2487C362.247 43.2903 362.306 43.3077 362.376 43.3009C362.414 43.2972 362.449 43.2868 362.479 43.2697C362.509 43.2491 362.537 43.2304 362.564 43.2137C362.591 43.1969 362.615 43.1875 362.636 43.1855C362.668 43.1824 362.697 43.1991 362.726 43.2353L362.957 43.5374C362.869 43.6203 362.766 43.6888 362.647 43.7427C362.528 43.7967 362.402 43.8301 362.269 43.843ZM363.618 43.6706L363.24 39.7509L363.904 39.687L364.281 43.6067L363.618 43.6706ZM363.222 43.7086L363.193 43.403C363.188 43.3539 363.197 43.3158 363.219 43.2889C363.245 43.2616 363.282 43.2403 363.33 43.225L363.624 43.1329L363.744 43.6584L363.222 43.7086ZM364.155 43.6188L364.172 43.0801L364.479 43.1144C364.529 43.1202 364.567 43.1343 364.594 43.1565C364.625 43.1784 364.642 43.2139 364.647 43.2631L364.677 43.5686L364.155 43.6188ZM363.367 39.7387L363.349 40.2774L363.043 40.2431C362.993 40.2373 362.953 40.2234 362.922 40.2016C362.895 40.1793 362.879 40.1436 362.875 40.0945L362.845 39.7889L363.367 39.7387ZM366.252 43.4595C365.982 43.4855 365.74 43.4485 365.529 43.3483C365.317 43.2447 365.144 43.0894 365.011 42.8824C364.88 42.6716 364.802 42.4222 364.774 42.1342C364.749 41.8813 364.782 41.6496 364.872 41.4389C364.961 41.2247 365.098 41.0502 365.284 40.9153C365.469 40.777 365.692 40.6953 365.952 40.6703C366.187 40.6476 366.397 40.6788 366.583 40.7637C366.771 40.8448 366.922 40.9721 367.034 41.1456C367.15 41.3188 367.22 41.5318 367.245 41.7847C367.254 41.8795 367.251 41.9471 367.238 41.9874C367.223 42.0243 367.183 42.0459 367.116 42.0523L365.457 42.2121C365.458 42.2226 365.459 42.2331 365.46 42.2437C365.461 42.2542 365.463 42.2646 365.468 42.2748C365.52 42.5179 365.613 42.6951 365.748 42.8062C365.886 42.9169 366.057 42.9625 366.261 42.9429C366.356 42.9337 366.449 42.9053 366.54 42.8575C366.634 42.8094 366.72 42.7622 366.797 42.7158C366.874 42.6658 366.937 42.6385 366.986 42.6338C367.035 42.629 367.077 42.6445 367.113 42.6801L367.331 42.9036C367.247 43.0216 367.145 43.1201 367.024 43.199C366.908 43.2776 366.783 43.3375 366.648 43.3788C366.518 43.4197 366.385 43.4466 366.252 43.4595ZM365.429 41.8159L366.636 41.6998C366.619 41.5242 366.557 41.383 366.451 41.2762C366.345 41.1694 366.199 41.125 366.013 41.1429C365.827 41.1608 365.684 41.2277 365.586 41.3436C365.49 41.4591 365.438 41.6165 365.429 41.8159ZM368.667 43.227C368.46 43.2469 368.275 43.2062 368.113 43.1048C367.954 42.9996 367.824 42.8473 367.724 42.6478C367.623 42.4484 367.559 42.2117 367.533 41.9377C367.507 41.6708 367.532 41.4274 367.606 41.2075C367.681 40.9877 367.8 40.8061 367.963 40.6627C368.127 40.5194 368.326 40.4364 368.561 40.4137C368.712 40.3992 368.843 40.4114 368.953 40.4504C369.063 40.4859 369.164 40.54 369.256 40.6127L369.118 39.185L369.787 39.1205L370.165 43.0403L369.754 43.0798C369.666 43.0883 369.606 43.0533 369.574 42.9749L369.496 42.7218C369.399 42.8587 369.283 42.9727 369.146 43.0639C369.01 43.155 368.85 43.2094 368.667 43.227ZM368.844 42.6836C368.977 42.6707 369.089 42.6316 369.178 42.5663C369.267 42.501 369.348 42.4135 369.419 42.3039L369.301 41.0869C369.219 41.0062 369.134 40.9523 369.047 40.9253C368.959 40.8983 368.866 40.8895 368.768 40.899C368.631 40.9122 368.518 40.9585 368.43 41.0378C368.345 41.1169 368.285 41.2272 368.249 41.369C368.213 41.5072 368.204 41.6746 368.223 41.8713C368.25 42.1523 368.315 42.3623 368.417 42.5014C368.519 42.6404 368.661 42.7012 368.844 42.6836ZM369.25 39.1723L369.233 39.711L368.921 39.6772C368.874 39.671 368.836 39.657 368.805 39.6352C368.775 39.6133 368.757 39.5777 368.753 39.5286L368.723 39.223L369.25 39.1723ZM370.033 43.0529L370.05 42.5142L370.362 42.548C370.409 42.5542 370.447 42.5682 370.478 42.5901C370.508 42.6119 370.526 42.6475 370.531 42.6966L370.56 43.0022L370.033 43.0529ZM370.774 41.647L370.721 41.0991L372.091 40.9672L372.144 41.5151L370.774 41.647ZM373.127 42.755L373.1 42.4705C373.092 42.3827 373.132 42.3292 373.223 42.3098L373.849 42.1858L373.636 39.9783C373.632 39.9326 373.628 39.8887 373.624 39.8466C373.623 39.8006 373.622 39.7546 373.621 39.7086L373.122 40.2139C373.103 40.2335 373.081 40.2497 373.058 40.2626C373.034 40.272 373.013 40.2776 372.995 40.2793C372.957 40.283 372.921 40.2793 372.888 40.2683C372.858 40.2535 372.834 40.2364 372.814 40.217L372.576 39.9528L373.645 38.8555L374.198 38.8022L374.518 42.1213L375.066 42.127C375.159 42.1323 375.209 42.1788 375.218 42.2666L375.245 42.5511L373.127 42.755Z" fill="black"/>
<path d="M272.411 245.128L272.397 244.976C272.394 244.948 272.397 244.916 272.406 244.881C272.417 244.846 272.436 244.814 272.462 244.785L273.171 243.917C273.247 243.825 273.311 243.737 273.364 243.655C273.418 243.569 273.459 243.483 273.484 243.396C273.512 243.308 273.522 243.219 273.513 243.128C273.505 243.044 273.484 242.975 273.45 242.923C273.415 242.868 273.369 242.83 273.311 242.809C273.253 242.786 273.185 242.778 273.106 242.785C273.007 242.795 272.924 242.831 272.858 242.893C272.791 242.955 272.75 243.03 272.734 243.119C272.722 243.166 272.705 243.202 272.683 243.226C272.66 243.247 272.628 243.26 272.585 243.264C272.565 243.266 272.534 243.266 272.49 243.263C272.446 243.259 272.375 243.253 272.277 243.243C272.29 242.995 272.37 242.798 272.518 242.653C272.667 242.508 272.859 242.424 273.094 242.401C273.255 242.386 273.4 242.403 273.528 242.454C273.656 242.502 273.759 242.579 273.837 242.686C273.918 242.789 273.965 242.917 273.98 243.068C273.992 243.193 273.979 243.311 273.941 243.421C273.903 243.529 273.849 243.633 273.779 243.735C273.708 243.836 273.631 243.939 273.547 244.044L273.021 244.702C273.077 244.679 273.133 244.661 273.19 244.645C273.249 244.63 273.304 244.62 273.354 244.615L274.165 244.537L274.205 244.955L272.411 245.128ZM273.852 244.651L273.871 244.391C273.875 244.359 273.885 244.333 273.9 244.312C273.914 244.291 273.939 244.279 273.972 244.276L274.138 244.26L274.165 244.541L273.852 244.651ZM275.977 242.153L275.995 242.343C276.002 242.413 275.984 242.469 275.942 242.512C275.902 242.552 275.837 242.577 275.746 242.586L275.04 242.654L275.002 243.202C275.056 243.185 275.109 243.172 275.161 243.162C275.214 243.152 275.264 243.144 275.312 243.14C275.492 243.123 275.647 243.143 275.776 243.201C275.907 243.256 276.011 243.339 276.087 243.451C276.166 243.562 276.212 243.695 276.227 243.851C276.245 244.036 276.219 244.202 276.148 244.35C276.078 244.497 275.973 244.618 275.834 244.711C275.695 244.802 275.532 244.856 275.344 244.874C275.193 244.889 275.047 244.873 274.907 244.826C274.769 244.778 274.649 244.716 274.547 244.638L274.67 244.438C274.699 244.391 274.737 244.366 274.782 244.361C274.811 244.359 274.846 244.365 274.886 244.38C274.929 244.396 274.975 244.413 275.026 244.432C275.078 244.452 275.131 244.468 275.183 244.483C275.238 244.494 275.289 244.498 275.337 244.493C275.445 244.483 275.532 244.453 275.597 244.403C275.665 244.35 275.713 244.283 275.741 244.2C275.772 244.115 275.782 244.02 275.772 243.917C275.758 243.775 275.707 243.669 275.618 243.598C275.528 243.526 275.406 243.498 275.25 243.513C275.122 243.525 275 243.56 274.882 243.617L274.59 243.566L274.684 242.277L275.977 242.153ZM277.52 244.665C277.335 244.683 277.171 244.66 277.03 244.596C276.888 244.532 276.773 244.435 276.685 244.305C276.598 244.173 276.545 244.017 276.528 243.837C276.516 243.712 276.529 243.584 276.567 243.452C276.605 243.317 276.669 243.175 276.758 243.026L277.298 242.134C277.317 242.104 277.347 242.075 277.388 242.049C277.429 242.024 277.477 242.008 277.532 242.003L277.936 241.964L277.282 242.947C277.269 242.965 277.251 242.992 277.228 243.028C277.207 243.062 277.189 243.09 277.174 243.113C277.222 243.08 277.274 243.053 277.33 243.033C277.386 243.013 277.448 243 277.515 242.993C277.657 242.98 277.788 242.998 277.909 243.05C278.033 243.098 278.135 243.177 278.216 243.286C278.296 243.394 278.345 243.531 278.361 243.697C278.377 243.863 278.351 244.017 278.285 244.159C278.219 244.298 278.119 244.413 277.988 244.504C277.856 244.594 277.7 244.648 277.52 244.665ZM277.477 244.298C277.571 244.289 277.65 244.261 277.716 244.213C277.784 244.166 277.835 244.104 277.869 244.028C277.903 243.952 277.916 243.868 277.907 243.777C277.892 243.628 277.838 243.516 277.743 243.44C277.651 243.362 277.533 243.33 277.389 243.343C277.3 243.352 277.223 243.38 277.157 243.428C277.091 243.475 277.042 243.537 277.008 243.613C276.976 243.688 276.965 243.772 276.974 243.863C276.983 243.959 277.008 244.042 277.048 244.11C277.091 244.179 277.148 244.23 277.219 244.265C277.293 244.297 277.379 244.308 277.477 244.298ZM278.905 244.502L278.647 241.823L279.101 241.779L279.249 243.313L279.332 243.305C279.363 243.302 279.386 243.295 279.402 243.284C279.421 243.273 279.437 243.255 279.452 243.232L279.844 242.624C279.863 242.595 279.883 242.574 279.903 242.56C279.926 242.543 279.956 242.533 279.995 242.529L280.413 242.489L279.913 243.231C279.897 243.259 279.877 243.286 279.855 243.309C279.836 243.331 279.813 243.351 279.789 243.37C279.84 243.399 279.886 243.442 279.928 243.499L280.62 244.337L280.209 244.377C280.175 244.38 280.145 244.377 280.117 244.368C280.092 244.355 280.068 244.336 280.046 244.309L279.518 243.658C279.499 243.631 279.479 243.615 279.459 243.609C279.441 243.601 279.414 243.599 279.378 243.603L279.278 243.612L279.359 244.459L278.905 244.502ZM280.05 242.909L279.772 242.71L279.757 242.552L280.287 242.501L280.148 242.878L280.05 242.909ZM280.303 244.368L280.076 243.975L280.326 244.002L280.303 244.368ZM278.635 244.528L278.615 244.32C278.612 244.286 278.618 244.26 278.633 244.241C278.651 244.223 278.676 244.208 278.709 244.198L278.91 244.135L278.992 244.494L278.635 244.528ZM279.273 244.467L279.284 244.099L279.494 244.122C279.528 244.126 279.555 244.136 279.573 244.151C279.594 244.166 279.606 244.19 279.609 244.224L279.629 244.433L279.273 244.467ZM278.734 241.814L278.722 242.183L278.512 242.159C278.478 242.155 278.451 242.146 278.43 242.131C278.411 242.116 278.401 242.091 278.397 242.058L278.377 241.849L278.734 241.814ZM280.416 242.489L280.436 242.697C280.44 242.731 280.432 242.757 280.415 242.776C280.397 242.794 280.372 242.809 280.339 242.819L280.138 242.882L280.056 242.523L280.416 242.489ZM279.865 242.542L279.853 242.91L279.644 242.886C279.61 242.882 279.582 242.873 279.561 242.858C279.543 242.843 279.532 242.818 279.529 242.785L279.509 242.576L279.865 242.542ZM280.303 244.368L280.315 244L280.524 244.023C280.558 244.027 280.585 244.037 280.603 244.052C280.624 244.067 280.636 244.091 280.639 244.125L280.659 244.334L280.303 244.368Z" fill="black"/>
<path d="M291.732 241.969L295.909 238.74L296.448 244.342L291.732 241.969Z" fill="black"/>
<rect x="-118.552" y="319.708" width="228.08" height="182.048" transform="rotate(-5.49903 -118.552 319.708)" fill="white" stroke="black" stroke-width="0.452292"/>
<rect x="-119.695" y="307.848" width="236.203" height="12.0032" transform="rotate(-5.49903 -119.695 307.848)" fill="#515151" stroke="black" stroke-width="0.452292"/>
<rect x="108.44" y="298.399" width="8.21242" height="189.63" transform="rotate(-5.49903 108.44 298.399)" stroke="black" stroke-width="0.452292"/>
<rect x="108.387" y="297.86" width="8.21242" height="173.925" transform="rotate(-5.49903 108.387 297.86)" fill="#515151" stroke="black" stroke-width="0.452292"/>
<rect x="109.219" y="306.486" width="8.21242" height="121.395" transform="rotate(-5.49903 109.219 306.486)" stroke="black" stroke-width="0.452292"/>
<rect x="113.319" y="349.071" width="8.21242" height="78.6132" transform="rotate(-5.49903 113.319 349.071)" fill="#C8C8C8" stroke="black" stroke-width="0.452292"/>
<rect x="134" y="478.196" width="8.21243" height="236.203" transform="rotate(84.501 134 478.196)" fill="#C8C8C8" stroke="black" stroke-width="0.452292"/>
<rect x="117.291" y="479.805" width="8.21243" height="192.879" transform="rotate(84.501 117.291 479.805)" fill="#515151" stroke="black" stroke-width="0.452292"/>
<rect x="125.916" y="478.974" width="8.21242" height="8.75397" transform="rotate(84.501 125.916 478.974)" fill="#C8C8C8" stroke="black" stroke-width="0.452292"/>
<rect x="133.222" y="470.11" width="8.21242" height="8.21242" transform="rotate(84.501 133.222 470.11)" fill="#C8C8C8" stroke="black" stroke-width="0.452292"/>
<rect x="116.564" y="297.073" width="8.75397" height="8.21242" transform="rotate(84.501 116.564 297.073)" fill="#C8C8C8" stroke="black" stroke-width="0.452292"/>
<rect x="54.2204" y="485.876" width="8.21243" height="120.854" transform="rotate(84.501 54.2204 485.876)" fill="#515151" stroke="black" stroke-width="0.452292"/>
<rect x="54.2204" y="485.876" width="8.21243" height="60.7423" transform="rotate(84.501 54.2204 485.876)" fill="#C8C8C8" stroke="black" stroke-width="0.452292"/>
<path d="M-12.2146 305.06C-12.5377 305.091 -12.8251 305.051 -13.0768 304.941C-13.325 304.83 -13.5254 304.663 -13.678 304.44C-13.8309 304.214 -13.9221 303.948 -13.9515 303.642L-14.1717 301.356L-13.4446 301.286L-13.225 303.567C-13.2067 303.757 -13.1573 303.92 -13.0767 304.058C-12.9961 304.196 -12.8887 304.299 -12.7545 304.367C-12.6168 304.436 -12.4566 304.461 -12.2739 304.443C-12.0878 304.425 -11.9352 304.372 -11.8162 304.282C-11.6975 304.189 -11.6116 304.069 -11.5584 303.922C-11.5055 303.772 -11.4884 303.6 -11.507 303.407L-11.7271 301.121L-11.0001 301.051L-10.78 303.337C-10.7499 303.65 -10.79 303.932 -10.9005 304.184C-11.0113 304.432 -11.1799 304.632 -11.4062 304.785C-11.629 304.938 -11.8985 305.029 -12.2146 305.06ZM-14.0452 301.344L-14.0625 301.882L-14.3689 301.848C-14.4191 301.842 -14.4594 301.829 -14.4898 301.807C-14.5168 301.784 -14.5326 301.749 -14.5374 301.7L-14.5668 301.394L-14.0452 301.344ZM-13.0495 301.248L-13.0201 301.553C-13.0153 301.603 -13.0258 301.641 -13.0516 301.668C-13.0773 301.695 -13.1125 301.717 -13.1571 301.732L-13.4566 301.824L-13.5711 301.298L-13.0495 301.248ZM-11.6007 301.108L-11.6179 301.647L-11.9243 301.613C-11.9745 301.607 -12.0148 301.593 -12.0453 301.571C-12.0723 301.549 -12.0881 301.513 -12.0928 301.464L-12.1223 301.159L-11.6007 301.108ZM-10.6049 301.013L-10.5755 301.318C-10.5708 301.367 -10.5813 301.406 -10.607 301.433C-10.6292 301.46 -10.6644 301.481 -10.7126 301.496L-11.0068 301.588L-11.1265 301.063L-10.6049 301.013ZM-9.59 304.765L-9.85071 302.057L-9.44504 302.018C-9.35372 302.009 -9.29363 302.044 -9.26478 302.122L-9.20184 302.334C-9.10061 302.208 -8.98647 302.105 -8.85943 302.025C-8.73272 301.942 -8.57981 301.892 -8.40068 301.874C-8.20399 301.856 -8.03469 301.884 -7.89277 301.958C-7.74734 302.033 -7.63206 302.144 -7.54693 302.292C-7.46181 302.44 -7.40961 302.614 -7.39034 302.814L-7.22448 304.537L-7.89357 304.601L-8.05943 302.878C-8.07498 302.717 -8.12403 302.594 -8.20658 302.51C-8.28913 302.426 -8.40592 302.391 -8.55695 302.405C-8.66583 302.416 -8.76691 302.452 -8.86018 302.514C-8.95028 302.573 -9.035 302.65 -9.11436 302.746L-8.92618 304.701L-9.59 304.765ZM-9.98514 304.803L-10.0146 304.497C-10.0193 304.448 -10.0105 304.41 -9.98833 304.383C-9.96259 304.356 -9.92565 304.334 -9.87749 304.319L-9.58328 304.227L-9.46356 304.752L-9.98514 304.803ZM-9.05263 304.713L-9.03536 304.174L-8.72898 304.208C-8.67879 304.214 -8.64022 304.228 -8.61327 304.25C-8.5828 304.272 -8.5652 304.308 -8.56047 304.357L-8.53105 304.663L-9.05263 304.713ZM-7.35093 304.549L-7.33893 304.011L-7.02728 304.045C-6.9806 304.051 -6.94203 304.065 -6.91157 304.087C-6.8811 304.109 -6.8635 304.144 -6.85877 304.193L-6.82935 304.499L-7.35093 304.549ZM-9.72426 302.044L-9.74153 302.583L-10.0479 302.549C-10.0981 302.543 -10.1384 302.529 -10.1689 302.507C-10.1958 302.485 -10.2117 302.449 -10.2164 302.4L-10.2458 302.095L-9.72426 302.044ZM-5.54202 304.417C-5.77735 304.44 -5.96641 304.391 -6.10921 304.27C-6.2485 304.149 -6.32948 303.97 -6.35213 303.735L-6.49719 302.228L-6.77115 302.255C-6.80627 302.258 -6.83714 302.25 -6.86376 302.232C-6.89037 302.213 -6.90588 302.181 -6.91027 302.135L-6.93563 301.872L-6.50545 301.756L-6.43898 301.01C-6.43203 300.935 -6.38641 300.894 -6.30211 300.885L-5.95966 300.852L-5.878 301.701L-5.16677 301.632L-5.12213 302.096L-5.83337 302.164L-5.69237 303.629C-5.68425 303.713 -5.65676 303.778 -5.60987 303.823C-5.56333 303.865 -5.50494 303.882 -5.43469 303.875C-5.39606 303.872 -5.36161 303.861 -5.33135 303.844C-5.30143 303.823 -5.2731 303.805 -5.24635 303.788C-5.21961 303.771 -5.1957 303.762 -5.17462 303.76C-5.14301 303.757 -5.11306 303.773 -5.08475 303.81L-4.85361 304.112C-4.94134 304.195 -5.04464 304.263 -5.16351 304.317C-5.28239 304.371 -5.40856 304.405 -5.54202 304.417ZM-4.19296 304.245L-4.45366 301.537L-3.78984 301.473L-3.52914 304.181L-4.19296 304.245ZM-4.58809 304.283L-4.61751 303.977C-4.62224 303.928 -4.6135 303.89 -4.59128 303.863C-4.56555 303.836 -4.52861 303.815 -4.48045 303.799L-4.18624 303.707L-4.06652 304.233L-4.58809 304.283ZM-3.65558 304.193L-3.63832 303.655L-3.33193 303.689C-3.28175 303.695 -3.24318 303.709 -3.21622 303.731C-3.18576 303.753 -3.16816 303.788 -3.16343 303.837L-3.13401 304.143L-3.65558 304.193ZM-4.32722 301.525L-4.34448 302.064L-4.65087 302.029C-4.70106 302.023 -4.74138 302.01 -4.77185 301.988C-4.7988 301.965 -4.81464 301.93 -4.81938 301.881L-4.84879 301.575L-4.32722 301.525ZM-4.14723 301.13C-4.25962 301.141 -4.36185 301.11 -4.45392 301.037C-4.546 300.965 -4.59744 300.872 -4.60826 300.76C-4.61942 300.644 -4.58674 300.541 -4.51022 300.452C-4.43404 300.36 -4.33976 300.308 -4.22736 300.298C-4.11146 300.286 -4.0073 300.319 -3.91489 300.395C-3.82282 300.468 -3.7712 300.562 -3.76005 300.678C-3.74923 300.79 -3.78207 300.891 -3.85859 300.98C-3.93511 301.069 -4.03132 301.119 -4.14723 301.13ZM-1.84281 304.061C-2.07813 304.084 -2.2672 304.035 -2.41 303.914C-2.54929 303.792 -2.63026 303.614 -2.65292 303.379L-2.79798 301.872L-3.07194 301.898C-3.10706 301.902 -3.13793 301.894 -3.16454 301.875C-3.19116 301.857 -3.20666 301.825 -3.21106 301.779L-3.23642 301.516L-2.80624 301.4L-2.73976 300.654C-2.73281 300.579 -2.68719 300.537 -2.6029 300.529L-2.26045 300.496L-2.17879 301.345L-1.46755 301.276L-1.42292 301.74L-2.13416 301.808L-1.99316 303.273C-1.98504 303.357 -1.95754 303.422 -1.91066 303.467C-1.86412 303.509 -1.80572 303.526 -1.73548 303.519C-1.69684 303.515 -1.6624 303.505 -1.63214 303.488C-1.60222 303.467 -1.57389 303.449 -1.54714 303.432C-1.52039 303.415 -1.49648 303.406 -1.47541 303.404C-1.4438 303.401 -1.41384 303.417 -1.38554 303.454L-1.1544 303.756C-1.24213 303.839 -1.34543 303.907 -1.4643 303.961C-1.58317 304.015 -1.70934 304.048 -1.84281 304.061ZM-0.493748 303.889L-0.871106 299.969L-0.207285 299.905L0.170073 303.825L-0.493748 303.889ZM-0.88888 303.927L-0.918297 303.621C-0.923031 303.572 -0.914289 303.534 -0.89207 303.507C-0.866338 303.48 -0.829394 303.459 -0.781236 303.443L-0.487023 303.351L-0.367306 303.877L-0.88888 303.927ZM0.0436308 303.837L0.060893 303.298L0.367279 303.333C0.417466 303.339 0.456035 303.353 0.482988 303.375C0.513453 303.397 0.531053 303.432 0.535787 303.481L0.565204 303.787L0.0436308 303.837ZM-0.744664 299.957L-0.761926 300.496L-1.06831 300.461C-1.1185 300.456 -1.15882 300.442 -1.18929 300.42C-1.21624 300.398 -1.23209 300.362 -1.23682 300.313L-1.26624 300.007L-0.744664 299.957ZM2.14065 303.678C1.87021 303.704 1.62913 303.667 1.41744 303.567C1.2054 303.463 1.03271 303.308 0.89935 303.101C0.769167 302.89 0.690212 302.64 0.662485 302.352C0.638139 302.1 0.67077 301.868 0.760377 301.657C0.849646 301.443 0.987045 301.268 1.17257 301.134C1.35777 300.995 1.58031 300.914 1.84022 300.889C2.07555 300.866 2.28592 300.897 2.47134 300.982C2.65993 301.063 2.81044 301.19 2.92285 301.364C3.03878 301.537 3.10891 301.75 3.13326 302.003C3.14239 302.098 3.14003 302.165 3.12619 302.206C3.11201 302.243 3.07155 302.264 3.00482 302.271L1.34527 302.43C1.34628 302.441 1.3473 302.451 1.34831 302.462C1.34933 302.472 1.3521 302.483 1.35662 302.493C1.40839 302.736 1.50166 302.913 1.63642 303.024C1.7747 303.135 1.94569 303.181 2.14941 303.161C2.24424 303.152 2.33721 303.124 2.42832 303.076C2.52294 303.028 2.60879 302.98 2.68585 302.934C2.76258 302.884 2.82552 302.857 2.8747 302.852C2.92387 302.847 2.96612 302.863 3.00145 302.898L3.21971 303.122C3.13536 303.24 3.03318 303.338 2.91316 303.417C2.79666 303.496 2.67127 303.556 2.53699 303.597C2.40623 303.638 2.27412 303.665 2.14065 303.678ZM1.31777 302.034L2.52423 301.918C2.50733 301.742 2.44588 301.601 2.33989 301.494C2.2339 301.388 2.08783 301.343 1.90168 301.361C1.71553 301.379 1.57308 301.446 1.47435 301.562C1.37912 301.677 1.32693 301.835 1.31777 302.034ZM4.55602 303.445C4.34879 303.465 4.16409 303.424 4.0019 303.323C3.84289 303.218 3.71301 303.066 3.61228 302.866C3.51155 302.667 3.448 302.43 3.42162 302.156C3.39592 301.889 3.42035 301.646 3.49489 301.426C3.56943 301.206 3.68843 301.024 3.85187 300.881C4.01531 300.738 4.21469 300.655 4.45001 300.632C4.60104 300.617 4.73161 300.63 4.84171 300.669C4.95147 300.704 5.05239 300.758 5.14446 300.831L5.00701 299.403L5.6761 299.339L6.05346 303.259L5.64252 303.298C5.55471 303.307 5.49463 303.272 5.46227 303.193L5.38473 302.94C5.28802 303.077 5.17139 303.191 5.03482 303.282C4.89826 303.373 4.73865 303.428 4.55602 303.445ZM4.73235 302.902C4.86581 302.889 4.97726 302.85 5.06668 302.785C5.1561 302.719 5.2363 302.632 5.30727 302.522L5.19011 301.305C5.1079 301.224 5.02296 301.171 4.93528 301.144C4.8476 301.117 4.75459 301.108 4.65625 301.117C4.51927 301.13 4.40675 301.177 4.31868 301.256C4.23412 301.335 4.17385 301.446 4.13787 301.587C4.10154 301.725 4.09285 301.893 4.11179 302.09C4.13884 302.371 4.20337 302.581 4.30537 302.72C4.40738 302.859 4.54971 302.919 4.73235 302.902ZM5.13872 299.391L5.12146 299.929L4.8098 299.895C4.76313 299.889 4.72456 299.875 4.6941 299.853C4.66363 299.832 4.64603 299.796 4.6413 299.747L4.61188 299.441L5.13872 299.391ZM5.92175 303.271L5.93901 302.732L6.25066 302.766C6.29734 302.772 6.33591 302.786 6.36637 302.808C6.39684 302.83 6.41444 302.866 6.41917 302.915L6.44859 303.22L5.92175 303.271ZM6.66241 301.865L6.60966 301.317L7.97945 301.185L8.0322 301.733L6.66241 301.865ZM9.01608 302.973L8.98869 302.689C8.98024 302.601 9.02116 302.547 9.11147 302.528L9.73759 302.404L9.52508 300.197C9.52068 300.151 9.51645 300.107 9.5124 300.065C9.51151 300.019 9.51063 299.973 9.50974 299.927L9.01072 300.432C8.99133 300.452 8.96986 300.468 8.94629 300.481C8.92238 300.49 8.90164 300.496 8.88408 300.498C8.84544 300.501 8.80964 300.498 8.77668 300.487C8.74689 300.472 8.7222 300.455 8.70261 300.435L8.46449 300.171L9.53396 299.074L10.0871 299.02L10.4067 302.34L10.9549 302.345C11.0476 302.351 11.0981 302.397 11.1066 302.485L11.134 302.769L9.01608 302.973Z" fill="black"/>
<path d="M124.378 483.247L119.661 480.875L120.201 486.477L124.378 483.247Z" fill="black"/>
<path d="M129.734 476.747L132.107 472.03L126.505 472.57L129.734 476.747Z" fill="black"/>
<path d="M112.662 299.397L115.891 303.575L110.289 304.114L112.662 299.397Z" fill="black"/>
<rect x="138.508" y="294.963" width="228.08" height="182.048" transform="rotate(-5.49903 138.508 294.963)" fill="white" stroke="black" stroke-width="0.452292"/>
<rect x="137.364" y="283.104" width="236.203" height="12.0032" transform="rotate(-5.49903 137.364 283.104)" fill="#515151" stroke="black" stroke-width="0.452292"/>
<rect x="365.501" y="273.654" width="8.21242" height="189.63" transform="rotate(-5.49903 365.501 273.654)" stroke="black" stroke-width="0.452292"/>
<rect x="365.448" y="273.115" width="8.21242" height="173.925" transform="rotate(-5.49903 365.448 273.115)" fill="#515151" stroke="black" stroke-width="0.452292"/>
<rect x="366.278" y="281.738" width="8.21242" height="121.395" transform="rotate(-5.49903 366.278 281.738)" stroke="black" stroke-width="0.452292"/>
<rect x="370.378" y="324.324" width="8.21242" height="78.6132" transform="rotate(-5.49903 370.378 324.324)" fill="#C8C8C8" stroke="black" stroke-width="0.452292"/>
<rect x="391.062" y="453.448" width="8.21243" height="236.203" transform="rotate(84.501 391.062 453.448)" fill="#C8C8C8" stroke="black" stroke-width="0.452292"/>
<rect x="374.349" y="455.057" width="8.21243" height="192.879" transform="rotate(84.501 374.349 455.057)" fill="#515151" stroke="black" stroke-width="0.452292"/>
<rect x="191.072" y="472.702" width="8.21242" height="8.75397" transform="rotate(84.501 191.072 472.702)" fill="#C8C8C8" stroke="black" stroke-width="0.452292"/>
<rect x="382.974" y="454.227" width="8.21242" height="8.75397" transform="rotate(84.501 382.974 454.227)" fill="#C8C8C8" stroke="black" stroke-width="0.452292"/>
<rect x="390.281" y="445.362" width="8.21242" height="8.21242" transform="rotate(84.501 390.281 445.362)" fill="#C8C8C8" stroke="black" stroke-width="0.452292"/>
<rect x="373.623" y="272.328" width="8.75397" height="8.21242" transform="rotate(84.501 373.623 272.328)" fill="#C8C8C8" stroke="black" stroke-width="0.452292"/>
<rect x="311.279" y="461.129" width="8.21243" height="120.854" transform="rotate(84.501 311.279 461.129)" fill="#515151" stroke="black" stroke-width="0.452292"/>
<rect x="311.279" y="461.129" width="8.21243" height="60.7423" transform="rotate(84.501 311.279 461.129)" fill="#C8C8C8" stroke="black" stroke-width="0.452292"/>
<circle cx="148.228" cy="288.088" r="2.43695" transform="rotate(-5.49903 148.228 288.088)" fill="black"/>
<circle cx="155.233" cy="287.413" r="2.21081" transform="rotate(-5.49903 155.233 287.413)" fill="white" stroke="black" stroke-width="0.452292"/>
<circle cx="162.243" cy="286.739" r="2.21081" transform="rotate(-5.49903 162.243 286.739)" fill="white" stroke="black" stroke-width="0.452292"/>
<path d="M244.844 280.315C244.521 280.347 244.233 280.307 243.982 280.196C243.734 280.086 243.533 279.919 243.381 279.696C243.228 279.47 243.136 279.204 243.107 278.898L242.887 276.612L243.614 276.542L243.834 278.823C243.852 279.013 243.901 279.176 243.982 279.314C244.062 279.451 244.17 279.554 244.304 279.623C244.442 279.691 244.602 279.717 244.785 279.699C244.971 279.681 245.123 279.627 245.242 279.538C245.361 279.445 245.447 279.325 245.5 279.178C245.553 279.028 245.57 278.856 245.552 278.663L245.331 276.376L246.059 276.306L246.279 278.593C246.309 278.905 246.269 279.188 246.158 279.439C246.047 279.687 245.879 279.888 245.652 280.041C245.43 280.194 245.16 280.285 244.844 280.315ZM243.013 276.6L242.996 277.138L242.69 277.104C242.64 277.098 242.599 277.084 242.569 277.062C242.542 277.04 242.526 277.004 242.521 276.955L242.492 276.65L243.013 276.6ZM244.009 276.504L244.039 276.809C244.043 276.858 244.033 276.897 244.007 276.924C243.981 276.951 243.946 276.972 243.901 276.987L243.602 277.08L243.488 276.554L244.009 276.504ZM245.458 276.364L245.441 276.903L245.134 276.869C245.084 276.863 245.044 276.849 245.013 276.827C244.986 276.805 244.97 276.769 244.966 276.72L244.936 276.414L245.458 276.364ZM246.454 276.268L246.483 276.574C246.488 276.623 246.477 276.661 246.452 276.689C246.429 276.716 246.394 276.737 246.346 276.752L246.052 276.844L245.932 276.319L246.454 276.268ZM247.469 280.02L247.208 277.312L247.614 277.273C247.705 277.264 247.765 277.299 247.794 277.378L247.857 277.59C247.958 277.463 248.072 277.36 248.199 277.281C248.326 277.198 248.479 277.147 248.658 277.13C248.855 277.111 249.024 277.139 249.166 277.214C249.311 277.289 249.427 277.4 249.512 277.548C249.597 277.696 249.649 277.87 249.668 278.07L249.834 279.793L249.165 279.857L248.999 278.134C248.984 277.973 248.935 277.85 248.852 277.766C248.769 277.681 248.653 277.646 248.502 277.661C248.393 277.671 248.292 277.708 248.198 277.77C248.108 277.828 248.024 277.906 247.944 278.002L248.132 279.956L247.469 280.02ZM247.073 280.058L247.044 279.753C247.039 279.704 247.048 279.666 247.07 279.639C247.096 279.611 247.133 279.59 247.181 279.575L247.475 279.483L247.595 280.008L247.073 280.058ZM248.006 279.969L248.023 279.43L248.33 279.464C248.38 279.47 248.418 279.484 248.445 279.506C248.476 279.528 248.493 279.564 248.498 279.613L248.528 279.918L248.006 279.969ZM249.708 279.805L249.72 279.267L250.031 279.3C250.078 279.306 250.117 279.32 250.147 279.342C250.177 279.364 250.195 279.4 250.2 279.449L250.229 279.755L249.708 279.805ZM247.334 277.3L247.317 277.839L247.011 277.805C246.96 277.799 246.92 277.785 246.89 277.763C246.863 277.741 246.847 277.705 246.842 277.656L246.813 277.35L247.334 277.3ZM251.517 279.673C251.281 279.696 251.092 279.647 250.949 279.526C250.81 279.404 250.729 279.226 250.706 278.991L250.561 277.484L250.287 277.51C250.252 277.514 250.221 277.506 250.195 277.487C250.168 277.469 250.153 277.436 250.148 277.391L250.123 277.127L250.553 277.012L250.62 276.266C250.627 276.191 250.672 276.149 250.756 276.141L251.099 276.108L251.181 276.956L251.892 276.888L251.936 277.352L251.225 277.42L251.366 278.885C251.374 278.969 251.402 279.034 251.449 279.079C251.495 279.12 251.554 279.138 251.624 279.131C251.663 279.127 251.697 279.117 251.727 279.1C251.757 279.079 251.785 279.061 251.812 279.044C251.839 279.027 251.863 279.018 251.884 279.016C251.916 279.013 251.946 279.029 251.974 279.065L252.205 279.368C252.117 279.45 252.014 279.519 251.895 279.573C251.776 279.627 251.65 279.66 251.517 279.673ZM252.866 279.501L252.605 276.793L253.269 276.729L253.529 279.437L252.866 279.501ZM252.471 279.539L252.441 279.233C252.436 279.184 252.445 279.146 252.467 279.119C252.493 279.092 252.53 279.07 252.578 279.055L252.872 278.963L252.992 279.489L252.471 279.539ZM253.403 279.449L253.42 278.91L253.727 278.945C253.777 278.95 253.815 278.964 253.842 278.987C253.873 279.008 253.89 279.044 253.895 279.093L253.925 279.399L253.403 279.449ZM252.731 276.781L252.714 277.319L252.408 277.285C252.358 277.279 252.317 277.265 252.287 277.243C252.26 277.221 252.244 277.186 252.239 277.136L252.21 276.831L252.731 276.781ZM252.911 276.386C252.799 276.397 252.697 276.366 252.605 276.293C252.513 276.22 252.461 276.128 252.45 276.015C252.439 275.899 252.472 275.797 252.548 275.708C252.625 275.616 252.719 275.564 252.831 275.553C252.947 275.542 253.051 275.575 253.144 275.651C253.236 275.723 253.287 275.818 253.299 275.934C253.309 276.046 253.277 276.147 253.2 276.236C253.123 276.325 253.027 276.375 252.911 276.386ZM255.216 279.317C254.98 279.34 254.791 279.29 254.649 279.17C254.509 279.048 254.428 278.87 254.406 278.635L254.261 277.128L253.987 277.154C253.952 277.158 253.921 277.15 253.894 277.131C253.867 277.113 253.852 277.08 253.848 277.035L253.822 276.771L254.252 276.655L254.319 275.91C254.326 275.835 254.371 275.793 254.456 275.785L254.798 275.752L254.88 276.6L255.591 276.532L255.636 276.995L254.924 277.064L255.065 278.529C255.074 278.613 255.101 278.678 255.148 278.723C255.194 278.764 255.253 278.782 255.323 278.775C255.362 278.771 255.396 278.761 255.426 278.744C255.456 278.723 255.485 278.704 255.511 278.688C255.538 278.671 255.562 278.662 255.583 278.659C255.615 278.656 255.645 278.673 255.673 278.709L255.904 279.011C255.816 279.094 255.713 279.163 255.594 279.217C255.475 279.271 255.349 279.304 255.216 279.317ZM256.565 279.145L256.187 275.225L256.851 275.161L257.229 279.081L256.565 279.145ZM256.17 279.183L256.14 278.877C256.136 278.828 256.144 278.79 256.167 278.763C256.192 278.736 256.229 278.714 256.277 278.699L256.572 278.607L256.691 279.132L256.17 279.183ZM257.102 279.093L257.119 278.554L257.426 278.588C257.476 278.594 257.515 278.608 257.542 278.63C257.572 278.652 257.59 278.688 257.594 278.737L257.624 279.043L257.102 279.093ZM256.314 275.213L256.297 275.751L255.99 275.717C255.94 275.711 255.9 275.697 255.869 275.676C255.842 275.653 255.827 275.618 255.822 275.568L255.792 275.263L256.314 275.213ZM259.199 278.933C258.929 278.96 258.688 278.922 258.476 278.822C258.264 278.719 258.091 278.563 257.958 278.356C257.828 278.146 257.749 277.896 257.721 277.608C257.697 277.355 257.729 277.124 257.819 276.913C257.908 276.699 258.046 276.524 258.231 276.389C258.416 276.251 258.639 276.169 258.899 276.144C259.134 276.122 259.345 276.153 259.53 276.238C259.719 276.319 259.869 276.446 259.981 276.62C260.097 276.793 260.168 277.006 260.192 277.259C260.201 277.354 260.199 277.421 260.185 277.461C260.171 277.498 260.13 277.52 260.063 277.526L258.404 277.686C258.405 277.697 258.406 277.707 258.407 277.718C258.408 277.728 258.411 277.739 258.415 277.749C258.467 277.992 258.56 278.169 258.695 278.28C258.833 278.391 259.004 278.436 259.208 278.417C259.303 278.408 259.396 278.379 259.487 278.332C259.582 278.283 259.667 278.236 259.744 278.19C259.821 278.14 259.884 278.113 259.933 278.108C259.982 278.103 260.025 278.118 260.06 278.154L260.278 278.378C260.194 278.496 260.092 278.594 259.972 278.673C259.855 278.752 259.73 278.812 259.596 278.853C259.465 278.894 259.333 278.921 259.199 278.933ZM258.376 277.29L259.583 277.174C259.566 276.998 259.504 276.857 259.398 276.75C259.292 276.643 259.146 276.599 258.96 276.617C258.774 276.635 258.632 276.702 258.533 276.818C258.438 276.933 258.386 277.091 258.376 277.29ZM261.615 278.701C261.407 278.721 261.223 278.68 261.06 278.579C260.901 278.474 260.772 278.321 260.671 278.122C260.57 277.922 260.507 277.686 260.48 277.412C260.455 277.145 260.479 276.901 260.553 276.682C260.628 276.462 260.747 276.28 260.91 276.137C261.074 275.993 261.273 275.91 261.509 275.888C261.66 275.873 261.79 275.885 261.9 275.924C262.01 275.96 262.111 276.014 262.203 276.087L262.066 274.659L262.735 274.595L263.112 278.514L262.701 278.554C262.613 278.562 262.553 278.527 262.521 278.449L262.443 278.196C262.347 278.333 262.23 278.447 262.093 278.538C261.957 278.629 261.797 278.683 261.615 278.701ZM261.791 278.158C261.924 278.145 262.036 278.106 262.125 278.04C262.215 277.975 262.295 277.888 262.366 277.778L262.249 276.561C262.166 276.48 262.082 276.426 261.994 276.399C261.906 276.372 261.813 276.364 261.715 276.373C261.578 276.386 261.465 276.432 261.377 276.512C261.293 276.591 261.232 276.701 261.196 276.843C261.16 276.981 261.151 277.149 261.17 277.345C261.197 277.626 261.262 277.836 261.364 277.975C261.466 278.114 261.608 278.175 261.791 278.158ZM262.197 274.646L262.18 275.185L261.868 275.151C261.822 275.145 261.783 275.131 261.753 275.109C261.722 275.087 261.705 275.052 261.7 275.003L261.67 274.697L262.197 274.646ZM262.98 278.527L262.998 277.988L263.309 278.022C263.356 278.028 263.395 278.042 263.425 278.064C263.455 278.086 263.473 278.121 263.478 278.171L263.507 278.476L262.98 278.527ZM263.721 277.121L263.668 276.573L265.038 276.441L265.091 276.989L263.721 277.121ZM266.075 278.229L266.047 277.945C266.039 277.857 266.08 277.803 266.17 277.784L266.796 277.66L266.584 275.452C266.579 275.407 266.575 275.363 266.571 275.321C266.57 275.275 266.569 275.229 266.568 275.183L266.069 275.688C266.05 275.707 266.028 275.724 266.005 275.737C265.981 275.746 265.96 275.752 265.943 275.753C265.904 275.757 265.868 275.753 265.835 275.742C265.805 275.727 265.781 275.71 265.761 275.691L265.523 275.427L266.593 274.329L267.146 274.276L267.465 277.595L268.014 277.601C268.106 277.606 268.157 277.653 268.165 277.741L268.193 278.025L266.075 278.229Z" fill="black"/>
<path d="M165.363 480.6L165.348 480.449C165.345 480.42 165.348 480.388 165.357 480.353C165.368 480.318 165.387 480.286 165.413 480.257L166.122 479.389C166.198 479.297 166.262 479.21 166.315 479.127C166.37 479.042 166.41 478.956 166.435 478.868C166.463 478.781 166.473 478.691 166.464 478.6C166.456 478.516 166.435 478.448 166.401 478.395C166.366 478.341 166.32 478.303 166.263 478.282C166.205 478.258 166.136 478.25 166.057 478.258C165.958 478.267 165.876 478.303 165.809 478.365C165.742 478.427 165.701 478.503 165.685 478.592C165.673 478.639 165.656 478.674 165.634 478.698C165.612 478.72 165.579 478.733 165.536 478.737C165.517 478.739 165.485 478.738 165.441 478.735C165.397 478.732 165.326 478.725 165.228 478.716C165.241 478.467 165.321 478.27 165.47 478.125C165.618 477.98 165.81 477.896 166.045 477.874C166.206 477.858 166.351 477.876 166.479 477.926C166.607 477.975 166.711 478.052 166.789 478.158C166.869 478.262 166.916 478.389 166.931 478.541C166.943 478.666 166.93 478.783 166.892 478.893C166.854 479.001 166.8 479.106 166.73 479.207C166.659 479.308 166.582 479.412 166.498 479.517L165.972 480.174C166.028 480.152 166.085 480.133 166.141 480.118C166.2 480.103 166.255 480.093 166.306 480.088L167.116 480.01L167.156 480.427L165.363 480.6ZM166.803 480.123L166.822 479.863C166.826 479.832 166.836 479.805 166.851 479.784C166.866 479.764 166.89 479.752 166.924 479.748L167.089 479.732L167.116 480.013L166.803 480.123ZM168.928 477.625L168.946 477.816C168.953 477.886 168.935 477.942 168.893 477.985C168.854 478.025 168.788 478.049 168.697 478.058L167.991 478.126L167.953 478.675C168.007 478.658 168.06 478.644 168.113 478.634C168.165 478.624 168.215 478.617 168.263 478.612C168.443 478.595 168.598 478.615 168.727 478.673C168.858 478.728 168.962 478.812 169.038 478.923C169.117 479.034 169.164 479.168 169.179 479.324C169.196 479.509 169.17 479.675 169.099 479.822C169.029 479.97 168.924 480.09 168.785 480.183C168.646 480.274 168.483 480.329 168.296 480.347C168.144 480.361 167.999 480.345 167.858 480.298C167.72 480.251 167.601 480.188 167.499 480.111L167.621 479.91C167.65 479.864 167.688 479.838 167.734 479.834C167.762 479.831 167.797 479.837 167.837 479.853C167.88 479.868 167.926 479.886 167.977 479.905C168.029 479.924 168.082 479.941 168.134 479.955C168.189 479.967 168.24 479.971 168.288 479.966C168.396 479.955 168.483 479.925 168.548 479.875C168.616 479.823 168.664 479.755 168.692 479.672C168.723 479.587 168.733 479.493 168.723 479.39C168.71 479.248 168.658 479.141 168.569 479.07C168.48 478.999 168.357 478.971 168.201 478.986C168.074 478.998 167.951 479.033 167.833 479.09L167.541 479.038L167.635 477.75L168.928 477.625ZM170.471 480.137C170.286 480.155 170.123 480.132 169.981 480.068C169.839 480.004 169.724 479.908 169.637 479.778C169.549 479.646 169.496 479.49 169.479 479.31C169.467 479.185 169.48 479.056 169.518 478.924C169.556 478.79 169.62 478.648 169.71 478.499L170.249 477.607C170.268 477.576 170.298 477.548 170.339 477.522C170.38 477.496 170.428 477.481 170.484 477.475L170.887 477.436L170.233 478.419C170.22 478.437 170.202 478.465 170.179 478.501C170.158 478.534 170.14 478.563 170.125 478.586C170.173 478.552 170.225 478.525 170.281 478.505C170.337 478.485 170.399 478.472 170.466 478.466C170.608 478.452 170.739 478.471 170.861 478.522C170.984 478.571 171.086 478.65 171.167 478.758C171.248 478.867 171.296 479.004 171.312 479.169C171.328 479.335 171.303 479.489 171.236 479.631C171.17 479.771 171.071 479.886 170.939 479.976C170.807 480.066 170.651 480.12 170.471 480.137ZM170.428 479.771C170.522 479.762 170.602 479.733 170.667 479.686C170.735 479.638 170.786 479.576 170.82 479.5C170.854 479.424 170.867 479.341 170.858 479.25C170.844 479.101 170.789 478.988 170.695 478.913C170.602 478.834 170.484 478.802 170.34 478.816C170.251 478.824 170.174 478.853 170.108 478.9C170.042 478.948 169.993 479.009 169.959 479.085C169.927 479.161 169.916 479.245 169.925 479.336C169.934 479.432 169.959 479.514 169.999 479.583C170.042 479.652 170.099 479.703 170.171 479.737C170.244 479.769 170.33 479.78 170.428 479.771ZM171.856 479.975L171.598 477.295L172.052 477.252L172.2 478.786L172.283 478.778C172.314 478.775 172.338 478.768 172.353 478.757C172.372 478.745 172.388 478.728 172.403 478.705L172.795 478.096C172.814 478.068 172.834 478.046 172.854 478.032C172.877 478.016 172.908 478.005 172.946 478.002L173.364 477.961L172.865 478.704C172.848 478.732 172.829 478.758 172.807 478.782C172.787 478.803 172.765 478.824 172.74 478.843C172.791 478.872 172.838 478.915 172.879 478.971L173.571 479.81L173.16 479.849C173.127 479.853 173.096 479.85 173.068 479.84C173.043 479.828 173.019 479.808 172.997 479.781L172.469 479.131C172.45 479.104 172.43 479.087 172.41 479.082C172.392 479.074 172.366 479.072 172.33 479.075L172.229 479.085L172.31 479.931L171.856 479.975ZM173.001 478.382L172.724 478.183L172.708 478.025L173.238 477.974L173.1 478.35L173.001 478.382ZM173.254 479.84L173.027 479.448L173.277 479.475L173.254 479.84ZM171.586 480.001L171.566 479.792C171.563 479.758 171.569 479.732 171.584 479.714C171.602 479.695 171.627 479.681 171.66 479.67L171.861 479.607L171.943 479.967L171.586 480.001ZM172.224 479.94L172.236 479.571L172.445 479.595C172.479 479.599 172.506 479.608 172.524 479.623C172.545 479.638 172.557 479.663 172.56 479.696L172.58 479.905L172.224 479.94ZM171.685 477.287L171.673 477.655L171.464 477.632C171.429 477.628 171.402 477.618 171.381 477.603C171.363 477.588 171.352 477.564 171.348 477.53L171.328 477.321L171.685 477.287ZM173.367 477.961L173.388 478.17C173.391 478.204 173.384 478.23 173.366 478.248C173.348 478.267 173.323 478.282 173.29 478.292L173.089 478.355L173.007 477.996L173.367 477.961ZM172.816 478.014L172.805 478.382L172.595 478.359C172.561 478.355 172.533 478.345 172.512 478.331C172.494 478.315 172.483 478.291 172.48 478.257L172.46 478.048L172.816 478.014ZM173.254 479.84L173.266 479.472L173.475 479.496C173.509 479.5 173.536 479.509 173.554 479.524C173.575 479.539 173.587 479.564 173.59 479.597L173.61 479.806L173.254 479.84Z" fill="black"/>
<path d="M184.681 477.442L188.858 474.213L189.398 479.815L184.681 477.442Z" fill="black"/>
<path d="M381.437 458.5L376.72 456.127L377.259 461.729L381.437 458.5Z" fill="black"/>
<path d="M386.797 452L389.17 447.283L383.568 447.822L386.797 452Z" fill="black"/>
<path d="M369.721 274.653L372.95 278.83L367.348 279.37L369.721 274.653Z" fill="black"/>
<rect x="395.567" y="270.214" width="228.08" height="182.048" transform="rotate(-5.49903 395.567 270.214)" fill="white" stroke="black" stroke-width="0.452292"/>
<rect x="394.426" y="258.355" width="236.203" height="12.0032" transform="rotate(-5.49903 394.426 258.355)" fill="#515151" stroke="black" stroke-width="0.452292"/>
<rect x="648.119" y="428.701" width="8.21243" height="236.203" transform="rotate(84.501 648.119 428.701)" fill="#C8C8C8" stroke="black" stroke-width="0.452292"/>
<circle cx="405.286" cy="263.338" r="2.43695" transform="rotate(-5.49903 405.286 263.338)" fill="black"/>
<circle cx="412.292" cy="262.664" r="2.21081" transform="rotate(-5.49903 412.292 262.664)" fill="white" stroke="black" stroke-width="0.452292"/>
<circle cx="419.302" cy="261.989" r="2.21081" transform="rotate(-5.49903 419.302 261.989)" fill="white" stroke="black" stroke-width="0.452292"/>
<path d="M422.421 455.853L422.407 455.701C422.404 455.672 422.407 455.641 422.416 455.606C422.427 455.571 422.445 455.539 422.472 455.51L423.181 454.642C423.257 454.55 423.321 454.462 423.373 454.38C423.428 454.294 423.468 454.208 423.494 454.121C423.522 454.033 423.531 453.944 423.523 453.853C423.515 453.769 423.493 453.7 423.459 453.648C423.425 453.593 423.379 453.555 423.321 453.534C423.263 453.51 423.195 453.503 423.115 453.51C423.017 453.52 422.934 453.555 422.868 453.618C422.801 453.68 422.76 453.755 422.744 453.844C422.732 453.891 422.714 453.927 422.692 453.951C422.67 453.972 422.638 453.985 422.594 453.989C422.575 453.991 422.544 453.991 422.5 453.987C422.456 453.984 422.385 453.978 422.287 453.968C422.299 453.72 422.38 453.523 422.528 453.378C422.677 453.233 422.868 453.149 423.104 453.126C423.265 453.11 423.409 453.128 423.538 453.179C423.666 453.227 423.769 453.304 423.847 453.411C423.928 453.514 423.975 453.642 423.989 453.793C424.002 453.918 423.989 454.036 423.951 454.146C423.913 454.254 423.859 454.358 423.788 454.46C423.718 454.561 423.641 454.664 423.556 454.769L423.031 455.427C423.087 455.404 423.143 455.386 423.2 455.37C423.259 455.355 423.314 455.345 423.364 455.34L424.175 455.262L424.215 455.68L422.421 455.853ZM423.862 455.376L423.881 455.116C423.885 455.084 423.894 455.058 423.909 455.037C423.924 455.016 423.949 455.004 423.982 455.001L424.148 454.985L424.175 455.266L423.862 455.376ZM425.986 452.878L426.005 453.068C426.011 453.138 425.994 453.194 425.952 453.237C425.912 453.277 425.847 453.302 425.755 453.311L425.049 453.378L425.011 453.927C425.066 453.91 425.119 453.896 425.171 453.887C425.223 453.877 425.274 453.869 425.322 453.865C425.502 453.848 425.656 453.868 425.786 453.926C425.917 453.981 426.021 454.064 426.097 454.176C426.175 454.287 426.222 454.42 426.237 454.576C426.255 454.761 426.229 454.927 426.158 455.075C426.087 455.222 425.983 455.342 425.844 455.436C425.705 455.527 425.541 455.581 425.354 455.599C425.203 455.614 425.057 455.598 424.917 455.55C424.779 455.503 424.659 455.441 424.557 455.363L424.68 455.163C424.709 455.116 424.747 455.091 424.792 455.086C424.821 455.084 424.856 455.09 424.896 455.105C424.939 455.121 424.985 455.138 425.035 455.157C425.088 455.177 425.141 455.193 425.193 455.208C425.247 455.219 425.299 455.223 425.347 455.218C425.455 455.208 425.541 455.178 425.607 455.128C425.674 455.075 425.723 455.008 425.751 454.925C425.781 454.84 425.792 454.745 425.782 454.642C425.768 454.5 425.717 454.394 425.627 454.322C425.538 454.251 425.416 454.223 425.259 454.238C425.132 454.25 425.01 454.285 424.891 454.342L424.599 454.291L424.693 453.002L425.986 452.878ZM427.529 455.39C427.345 455.408 427.181 455.385 427.039 455.321C426.897 455.257 426.783 455.16 426.695 455.03C426.607 454.898 426.555 454.742 426.537 454.562C426.525 454.437 426.538 454.309 426.577 454.177C426.615 454.042 426.678 453.9 426.768 453.751L427.308 452.859C427.326 452.828 427.356 452.8 427.398 452.774C427.439 452.749 427.487 452.733 427.542 452.728L427.946 452.689L427.291 453.672C427.279 453.69 427.261 453.717 427.237 453.753C427.216 453.787 427.198 453.815 427.184 453.838C427.231 453.805 427.283 453.778 427.34 453.758C427.396 453.738 427.458 453.725 427.525 453.718C427.666 453.705 427.798 453.723 427.919 453.775C428.043 453.823 428.145 453.902 428.225 454.011C428.306 454.119 428.355 454.256 428.37 454.422C428.386 454.588 428.361 454.741 428.295 454.884C428.228 455.023 428.129 455.138 427.997 455.228C427.865 455.319 427.71 455.373 427.529 455.39ZM427.487 455.023C427.581 455.014 427.66 454.986 427.726 454.938C427.794 454.891 427.845 454.829 427.879 454.753C427.913 454.677 427.925 454.593 427.917 454.502C427.902 454.353 427.848 454.241 427.753 454.165C427.661 454.087 427.543 454.055 427.399 454.068C427.31 454.077 427.232 454.105 427.167 454.152C427.101 454.2 427.051 454.262 427.017 454.338C426.986 454.413 426.975 454.497 426.983 454.588C426.993 454.684 427.017 454.767 427.058 454.835C427.101 454.904 427.158 454.955 427.229 454.99C427.303 455.022 427.388 455.033 427.487 455.023ZM428.915 455.227L428.657 452.548L429.111 452.504L429.259 454.038L429.341 454.03C429.373 454.027 429.396 454.02 429.412 454.009C429.43 453.998 429.447 453.98 429.462 453.957L429.854 453.349C429.873 453.32 429.893 453.299 429.913 453.285C429.936 453.268 429.966 453.258 430.005 453.254L430.422 453.214L429.923 453.956C429.906 453.984 429.887 454.011 429.865 454.034C429.845 454.056 429.823 454.076 429.798 454.095C429.85 454.124 429.896 454.167 429.938 454.224L430.629 455.062L430.219 455.102C430.185 455.105 430.155 455.102 430.127 455.093C430.102 455.08 430.078 455.061 430.056 455.034L429.528 454.383C429.508 454.356 429.489 454.34 429.469 454.334C429.451 454.326 429.424 454.324 429.388 454.328L429.287 454.337L429.369 455.184L428.915 455.227ZM430.059 453.634L429.782 453.435L429.767 453.277L430.296 453.226L430.158 453.603L430.059 453.634ZM430.312 455.093L430.086 454.7L430.335 454.727L430.312 455.093ZM428.645 455.253L428.625 455.044C428.622 455.011 428.628 454.985 428.643 454.966C428.66 454.948 428.686 454.933 428.718 454.923L428.92 454.86L429.001 455.219L428.645 455.253ZM429.282 455.192L429.294 454.824L429.504 454.847C429.538 454.851 429.564 454.861 429.583 454.876C429.604 454.891 429.616 454.915 429.619 454.949L429.639 455.158L429.282 455.192ZM428.743 452.539L428.732 452.908L428.522 452.884C428.488 452.88 428.46 452.871 428.44 452.856C428.421 452.841 428.41 452.816 428.407 452.783L428.387 452.574L428.743 452.539ZM430.426 453.213L430.446 453.422C430.449 453.456 430.442 453.482 430.425 453.501C430.407 453.519 430.382 453.534 430.349 453.544L430.148 453.607L430.066 453.248L430.426 453.213ZM429.875 453.267L429.863 453.635L429.654 453.611C429.619 453.607 429.592 453.598 429.571 453.583C429.553 453.568 429.542 453.543 429.538 453.51L429.518 453.301L429.875 453.267ZM430.312 455.093L430.324 454.725L430.534 454.748C430.568 454.752 430.594 454.762 430.613 454.777C430.634 454.792 430.646 454.816 430.649 454.85L430.669 455.059L430.312 455.093Z" fill="black"/>
</svg>
