<svg width="410" height="275" viewBox="0 0 410 275" fill="none" xmlns="http://www.w3.org/2000/svg">
<path d="M5.69336 81.2356L5.69336 2.75544L38.0858 2.75544C51.7117 2.75544 62.2075 6.13744 69.576 12.8959C76.9501 19.6571 80.6371 29.3561 80.6371 41.9955C80.6371 54.635 76.9501 64.3367 69.576 71.0951C62.2075 77.8564 51.7117 81.2356 38.0858 81.2356L5.69336 81.2356ZM24.0394 66.1304L38.0858 66.1304C45.6743 66.1304 51.5112 64.059 55.5964 59.9107C59.6873 55.7567 61.7341 49.7869 61.7341 41.9955C61.7341 34.1319 59.6873 28.1288 55.5964 23.9804C51.5112 19.8265 45.6743 17.7495 38.0858 17.7495L24.0394 17.7495L24.0394 66.1304Z" fill="url(#paint0_linear_243_79)"/>
<path d="M85.834 81.2355L85.834 2.75541L141.218 2.75541L141.218 17.7495L104.069 17.7495L104.069 34.3874L136.795 34.3874L136.795 47.7265L104.069 47.7266L104.069 66.1304L142.32 66.1304L142.32 81.2355L85.834 81.2355Z" fill="url(#paint1_linear_243_79)"/>
<path d="M178.804 83.9896C172.312 83.9896 166.467 82.9789 161.271 80.9575C156.08 78.936 151.881 75.9594 148.673 72.0276C145.47 68.0959 143.574 63.3033 142.98 57.6444L160.224 54.4457C160.817 59.1549 162.88 62.9257 166.417 65.7523C169.959 68.5818 174.343 69.9951 179.572 69.9951C184.287 69.9951 188.007 69.0233 190.734 67.074C193.466 65.1276 194.833 62.648 194.833 59.6325C194.833 57.2057 193.8 55.2398 191.736 53.7349C189.67 52.2327 186.317 51.0026 181.678 50.0474L170.728 47.9483C162.031 46.26 155.673 43.6166 151.658 40.0181C147.648 36.4139 145.643 31.527 145.643 25.3572C145.643 20.212 146.985 15.7471 149.675 11.9625C152.362 8.18063 156.083 5.24012 160.836 3.14372C165.587 1.0501 170.987 0.000519482 177.033 0.000519218C182.558 0.000518976 187.548 0.939033 192.004 2.81052C196.465 4.68478 200.116 7.3143 202.953 10.6963C205.788 14.0727 207.537 18.0378 208.2 22.5916L191.291 26.3457C190.778 22.525 189.191 19.4928 186.534 17.2493C183.883 15.0057 180.642 13.8839 176.81 13.8839C172.978 13.8839 169.918 14.8058 167.631 16.6495C165.351 18.4877 164.212 20.8006 164.212 23.5912C164.212 25.9403 165.15 27.8118 167.03 29.2112C168.907 30.6051 171.875 31.7074 175.93 32.521L187.091 34.6091C196.083 36.0835 202.678 38.6936 206.874 42.4393C211.076 46.1878 213.179 51.2553 213.179 57.6444C213.179 63.0867 211.723 67.7932 208.812 71.7611C205.9 75.7234 201.864 78.7528 196.704 80.8464C191.55 82.94 185.582 83.9896 178.804 83.9896Z" fill="url(#paint2_linear_243_79)"/>
<path d="M216.719 81.2356L216.719 2.75544L235.622 2.75544L235.622 81.2356L216.719 81.2356Z" fill="url(#paint3_linear_243_79)"/>
<path d="M279.612 83.767C272.021 83.767 265.298 82.0038 259.439 78.4802C253.58 74.9566 249.007 70.0557 245.727 63.7749C242.452 57.4885 240.814 50.2302 240.814 41.9946C240.814 33.6951 242.563 26.3869 246.061 20.0699C249.559 13.7474 254.421 8.82436 260.653 5.29797C266.883 1.76604 274.087 5.95808e-05 282.263 5.92234e-05C288.083 5.8969e-05 293.427 1.08574 298.292 3.25433C303.154 5.42569 307.298 8.4384 310.723 12.2952C314.154 16.1548 316.532 20.6141 317.863 25.6788L300.509 29.3218C299.253 25.4289 296.928 22.2524 293.536 19.7922C290.149 17.3266 286.318 16.0937 282.04 16.0937C277.696 16.0937 273.825 17.1988 270.433 19.4035C267.047 21.6026 264.413 24.632 262.536 28.4888C260.656 32.3484 259.717 36.8494 259.717 41.9946C259.717 47.1426 260.781 51.6991 262.914 55.667C265.053 59.6376 267.999 62.742 271.759 64.9855C275.524 67.2235 279.837 68.3397 284.702 68.3397C288.896 68.3397 292.65 67.479 295.964 65.7519C299.284 64.0192 301.957 61.6507 303.984 58.6436C306.012 55.6309 307.098 52.2128 307.248 48.3921L273.419 48.3921L273.419 36.7078L325.705 36.7078L325.705 81.2346L311.893 81.2346L310.01 66.3516L309.899 66.3516C307.396 71.7939 303.452 76.0589 298.069 79.1466C292.692 82.2259 286.54 83.767 279.612 83.767Z" fill="url(#paint4_linear_243_79)"/>
<path d="M332.012 81.2355L332.012 2.75541L354.123 2.75541L386.181 58.6445L386.393 58.6445L386.393 2.75541L404.304 2.75541L404.304 81.2355L382.082 81.2355L350.024 25.4576L349.812 25.4576L349.812 81.2355L332.012 81.2355Z" fill="url(#paint5_linear_243_79)"/>
<path d="M5.69336 176.674L5.69336 98.1943L38.0858 98.1943C51.7117 98.1943 62.2075 101.576 69.576 108.335C76.9501 115.096 80.6371 124.795 80.6371 137.434C80.6371 150.074 76.9501 159.776 69.576 166.534C62.2075 173.295 51.7117 176.674 38.0858 176.674L5.69336 176.674ZM24.0394 161.569L38.0858 161.569C45.6743 161.569 51.5112 159.498 55.5964 155.35C59.6873 151.196 61.7341 145.226 61.7341 137.434C61.7341 129.571 59.6873 123.568 55.5964 119.419C51.5112 115.265 45.6743 113.188 38.0858 113.188L24.0394 113.188L24.0394 161.569Z" fill="black"/>
<path d="M85.834 176.674L85.834 98.1943L141.218 98.1943L141.218 113.188L104.069 113.188L104.069 129.826L136.795 129.826L136.795 143.165L104.069 143.165L104.069 161.569L142.32 161.569L142.32 176.674L85.834 176.674Z" fill="black"/>
<path d="M178.804 179.429C172.312 179.429 166.467 178.418 161.271 176.396C156.08 174.375 151.881 171.398 148.673 167.467C145.47 163.535 143.574 158.742 142.98 153.083L160.224 149.885C160.817 154.594 162.88 158.365 166.417 161.191C169.959 164.021 174.343 165.434 179.572 165.434C184.287 165.434 188.007 164.462 190.734 162.513C193.466 160.567 194.833 158.087 194.833 155.071C194.833 152.645 193.8 150.679 191.736 149.174C189.67 147.672 186.317 146.442 181.678 145.486L170.728 143.387C162.031 141.699 155.673 139.056 151.658 135.457C147.648 131.853 145.643 126.966 145.643 120.796C145.643 115.651 146.985 111.186 149.675 107.401C152.362 103.62 156.083 100.679 160.836 98.5826C165.587 96.489 170.987 95.4394 177.033 95.4394C182.558 95.4394 187.548 96.378 192.004 98.2494C196.465 100.124 200.116 102.753 202.953 106.135C205.788 109.512 207.537 113.477 208.2 118.031L191.291 121.785C190.778 117.964 189.191 114.932 186.534 112.688C183.883 110.445 180.642 109.323 176.81 109.323C172.978 109.323 169.918 110.245 167.631 112.088C165.351 113.927 164.212 116.24 164.212 119.03C164.212 121.379 165.15 123.251 167.03 124.65C168.907 126.044 171.875 127.146 175.93 127.96L187.091 130.048C196.083 131.522 202.678 134.132 206.874 137.878C211.076 141.627 213.179 146.694 213.179 153.083C213.179 158.526 211.723 163.232 208.812 167.2C205.9 171.162 201.864 174.192 196.704 176.285C191.55 178.379 185.582 179.429 178.804 179.429Z" fill="black"/>
<path d="M216.719 176.674L216.719 98.1943L235.622 98.1943L235.622 176.674L216.719 176.674Z" fill="black"/>
<path d="M279.612 179.206C272.021 179.206 265.298 177.443 259.439 173.919C253.58 170.395 249.007 165.495 245.727 159.214C242.452 152.927 240.814 145.669 240.814 137.434C240.814 129.134 242.563 121.826 246.061 115.509C249.559 109.186 254.421 104.263 260.653 100.737C266.883 97.205 274.087 95.439 282.263 95.439C288.083 95.439 293.427 96.5247 298.292 98.6933C303.154 100.865 307.298 103.877 310.723 107.734C314.154 111.594 316.532 116.053 317.863 121.118L300.509 124.761C299.253 120.868 296.928 117.691 293.536 115.231C290.149 112.765 286.318 111.533 282.04 111.533C277.696 111.533 273.825 112.638 270.433 114.842C267.047 117.042 264.413 120.071 262.536 123.928C260.656 127.787 259.717 132.288 259.717 137.434C259.717 142.581 260.781 147.138 262.914 151.106C265.053 155.077 267.999 158.181 271.759 160.424C275.524 162.662 279.837 163.779 284.702 163.779C288.896 163.779 292.65 162.918 295.964 161.191C299.284 159.458 301.957 157.09 303.984 154.082C306.012 151.07 307.098 147.652 307.248 143.831L273.419 143.831L273.419 132.147L325.705 132.147L325.705 176.674L311.893 176.674L310.01 161.791L309.899 161.791C307.396 167.233 303.452 171.498 298.069 174.586C292.692 177.665 286.54 179.206 279.612 179.206Z" fill="black"/>
<path d="M332.012 176.674L332.012 98.1943L354.123 98.1943L386.181 154.083L386.393 154.083L386.393 98.1943L404.304 98.1943L404.304 176.674L382.082 176.674L350.024 120.896L349.812 120.896L349.812 176.674L332.012 176.674Z" fill="black"/>
<path d="M5.69336 272.113L5.69336 193.633L38.0858 193.633C51.7117 193.633 62.2075 197.015 69.576 203.774C76.9501 210.535 80.6371 220.234 80.6371 232.873C80.6371 245.513 76.9501 255.214 69.576 261.973C62.2075 268.734 51.7117 272.113 38.0858 272.113L5.69336 272.113ZM24.0394 257.008L38.0858 257.008C45.6743 257.008 51.5112 254.937 55.5964 250.788C59.6873 246.635 61.7341 240.665 61.7341 232.873C61.7341 225.01 59.6873 219.007 55.5964 214.858C51.5112 210.704 45.6743 208.627 38.0858 208.627L24.0394 208.627L24.0394 257.008Z" fill="url(#paint6_linear_243_79)"/>
<path d="M85.834 272.113L85.834 193.633L141.218 193.633L141.218 208.627L104.069 208.627L104.069 225.265L136.795 225.265L136.795 238.604L104.069 238.604L104.069 257.008L142.32 257.008L142.32 272.113L85.834 272.113Z" fill="url(#paint7_linear_243_79)"/>
<path d="M178.804 274.867C172.312 274.867 166.467 273.857 161.271 271.835C156.08 269.814 151.881 266.837 148.673 262.905C145.47 258.974 143.574 254.181 142.98 248.522L160.224 245.323C160.817 250.033 162.88 253.803 166.417 256.63C169.959 259.46 174.343 260.873 179.572 260.873C184.287 260.873 188.007 259.901 190.734 257.952C193.466 256.005 194.833 253.526 194.833 250.51C194.833 248.084 193.8 246.118 191.736 244.613C189.67 243.11 186.317 241.88 181.678 240.925L170.728 238.826C162.031 237.138 155.673 234.494 151.658 230.896C147.648 227.292 145.643 222.405 145.643 216.235C145.643 211.09 146.985 206.625 149.675 202.84C152.362 199.058 156.083 196.118 160.836 194.022C165.587 191.928 170.987 190.878 177.033 190.878C182.558 190.878 187.548 191.817 192.004 193.688C196.465 195.563 200.116 198.192 202.953 201.574C205.788 204.951 207.537 208.916 208.2 213.469L191.291 217.223C190.778 213.403 189.191 210.371 186.534 208.127C183.883 205.884 180.642 204.762 176.81 204.762C172.978 204.762 169.918 205.684 167.631 207.527C165.351 209.365 164.212 211.678 164.212 214.469C164.212 216.818 165.15 218.69 167.03 220.089C168.907 221.483 171.875 222.585 175.93 223.399L187.091 225.487C196.083 226.961 202.678 229.571 206.874 233.317C211.076 237.066 213.179 242.133 213.179 248.522C213.179 253.965 211.723 258.671 208.812 262.639C205.9 266.601 201.864 269.631 196.704 271.724C191.55 273.818 185.582 274.867 178.804 274.867Z" fill="url(#paint8_linear_243_79)"/>
<path d="M216.719 272.113L216.719 193.633L235.622 193.633L235.622 272.113L216.719 272.113Z" fill="url(#paint9_linear_243_79)"/>
<path d="M279.612 274.645C272.021 274.645 265.298 272.882 259.439 269.358C253.58 265.834 249.007 260.934 245.727 254.653C242.452 248.366 240.814 241.108 240.814 232.872C240.814 224.573 242.563 217.265 246.061 210.948C249.559 204.625 254.421 199.702 260.653 196.176C266.883 192.644 274.087 190.878 282.263 190.878C288.083 190.878 293.427 191.964 298.292 194.132C303.154 196.304 307.298 199.316 310.723 203.173C314.154 207.033 316.532 211.492 317.863 216.557L300.509 220.2C299.253 216.307 296.928 213.13 293.536 210.67C290.149 208.204 286.318 206.972 282.04 206.972C277.696 206.972 273.825 208.077 270.433 210.281C267.047 212.48 264.413 215.51 262.536 219.367C260.656 223.226 259.717 227.727 259.717 232.872C259.717 238.02 260.781 242.577 262.914 246.545C265.053 250.515 267.999 253.62 271.759 255.863C275.524 258.101 279.837 259.218 284.702 259.218C288.896 259.218 292.65 258.357 295.964 256.63C299.284 254.897 301.957 252.529 303.984 249.521C306.012 246.509 307.098 243.091 307.248 239.27L273.419 239.27L273.419 227.586L325.705 227.586L325.705 272.112L311.893 272.112L310.01 257.229L309.899 257.229C307.396 262.672 303.452 266.937 298.069 270.024C292.692 273.104 286.54 274.645 279.612 274.645Z" fill="url(#paint10_linear_243_79)"/>
<path d="M332.012 272.113L332.012 193.633L354.123 193.633L386.181 249.522L386.393 249.522L386.393 193.633L404.304 193.633L404.304 272.113L382.082 272.113L350.024 216.335L349.812 216.335L349.812 272.113L332.012 272.113Z" fill="url(#paint11_linear_243_79)"/>
<path d="M0 17.0833H410V242.583H0V17.0833Z" fill="#F0B90B" fill-opacity="0.67"/>
<path d="M399 229.102L385.419 229.102L385.419 226.495L399 226.495L399 229.102ZM399 230.49L397.912 230.49C397.737 230.49 397.606 230.447 397.518 230.359C397.431 230.259 397.368 230.121 397.331 229.946L397.105 228.877L399 228.633L399 230.49ZM399 226.945L397.105 226.701L397.331 225.632C397.368 225.457 397.431 225.326 397.518 225.238C397.606 225.138 397.737 225.088 397.912 225.088L399 225.088L399 226.945ZM385.419 228.633L387.314 228.877L387.089 229.946C387.051 230.121 386.989 230.259 386.901 230.359C386.814 230.447 386.682 230.49 386.507 230.49L385.419 230.49L385.419 228.633ZM385.419 225.088L386.507 225.088C386.682 225.088 386.814 225.138 386.901 225.238C386.989 225.326 387.051 225.457 387.089 225.632L387.314 226.701L385.419 226.945L385.419 225.088ZM399.15 220.571C399.15 221.308 398.944 221.946 398.531 222.484C398.106 223.009 397.524 223.415 396.787 223.703C396.049 223.991 395.192 224.134 394.217 224.134C393.266 224.134 392.416 223.966 391.666 223.628C390.915 223.29 390.315 222.809 389.865 222.184C389.415 221.558 389.19 220.827 389.19 219.989C389.19 219.451 389.277 218.995 389.452 218.62C389.615 218.245 389.84 217.907 390.128 217.607L385.044 217.607L385.044 215.225L399 215.225L399 216.688C399 217 398.856 217.2 398.569 217.288L397.649 217.475C398.1 217.863 398.462 218.313 398.737 218.826C399.013 219.339 399.15 219.92 399.15 220.571ZM397.293 219.764C397.293 219.289 397.193 218.882 396.993 218.545C396.793 218.207 396.511 217.894 396.149 217.607L391.816 217.607C391.503 217.869 391.284 218.151 391.159 218.451C391.034 218.751 390.972 219.076 390.972 219.426C390.972 219.914 391.097 220.327 391.347 220.664C391.597 220.989 391.966 221.24 392.454 221.415C392.929 221.59 393.517 221.677 394.217 221.677C395.217 221.677 395.98 221.521 396.505 221.208C397.03 220.896 397.293 220.414 397.293 219.764ZM385.044 217.138L386.939 217.382L386.714 218.47C386.676 218.632 386.614 218.764 386.526 218.864C386.439 218.964 386.307 219.014 386.132 219.014L385.044 219.014L385.044 217.138ZM399 215.694L397.105 215.45L397.331 214.362C397.368 214.199 397.431 214.068 397.518 213.968C397.606 213.868 397.737 213.818 397.912 213.818L399 213.818L399 215.694ZM399.15 208.233C399.15 209.196 398.937 210.033 398.512 210.746C398.075 211.459 397.468 212.015 396.693 212.416C395.905 212.803 394.998 212.997 393.973 212.997C393.073 212.997 392.266 212.803 391.553 212.416C390.828 212.028 390.259 211.484 389.846 210.784C389.421 210.083 389.209 209.271 389.209 208.345C389.209 207.507 389.39 206.776 389.752 206.151C390.103 205.513 390.603 205.025 391.253 204.687C391.903 204.337 392.679 204.162 393.579 204.162C393.917 204.162 394.154 204.194 394.292 204.256C394.417 204.319 394.479 204.469 394.479 204.706L394.479 210.615C394.517 210.615 394.554 210.615 394.592 210.615C394.629 210.615 394.667 210.609 394.704 210.596C395.58 210.496 396.236 210.227 396.674 209.79C397.112 209.339 397.331 208.752 397.331 208.026C397.331 207.689 397.262 207.351 397.124 207.013C396.987 206.663 396.849 206.344 396.712 206.057C396.562 205.769 396.486 205.538 396.486 205.363C396.486 205.188 396.555 205.044 396.693 204.931L397.556 204.237C397.943 204.575 398.256 204.969 398.494 205.419C398.731 205.857 398.9 206.319 399 206.807C399.1 207.282 399.15 207.757 399.15 208.233ZM393.073 210.577L393.073 206.282C392.447 206.282 391.928 206.451 391.516 206.788C391.103 207.126 390.897 207.626 390.897 208.289C390.897 208.952 391.084 209.477 391.459 209.865C391.835 210.24 392.372 210.477 393.073 210.577ZM399 201.753L389.359 201.753L389.359 200.308C389.359 199.983 389.502 199.783 389.79 199.708L390.559 199.558C390.146 199.158 389.821 198.72 389.584 198.245C389.334 197.77 389.209 197.213 389.209 196.576C389.209 195.875 389.365 195.287 389.677 194.812C389.99 194.325 390.422 193.956 390.972 193.706C391.522 193.456 392.153 193.33 392.866 193.33L399 193.33L399 195.713L392.866 195.713C392.291 195.713 391.841 195.844 391.516 196.107C391.191 196.369 391.028 196.769 391.028 197.307C391.028 197.695 391.122 198.064 391.309 198.414C391.484 198.751 391.728 199.077 392.041 199.389L399 199.389L399 201.753ZM399 203.159L397.912 203.159C397.737 203.159 397.606 203.116 397.518 203.028C397.431 202.928 397.368 202.791 397.331 202.615L397.105 201.546L399 201.302L399 203.159ZM399 199.839L397.105 199.596L397.331 198.526C397.368 198.351 397.431 198.22 397.518 198.132C397.606 198.032 397.737 197.982 397.912 197.982L399 197.982L399 199.839ZM399 193.781L397.105 193.556L397.331 192.468C397.368 192.305 397.431 192.174 397.518 192.074C397.606 191.974 397.737 191.924 397.912 191.924L399 191.924L399 193.781ZM389.359 201.302L391.253 201.546L391.028 202.615C390.99 202.791 390.928 202.928 390.84 203.028C390.753 203.116 390.622 203.159 390.447 203.159L389.359 203.159L389.359 201.302ZM399.15 187.355C399.15 188.193 398.912 188.843 398.437 189.305C397.962 189.756 397.306 189.981 396.468 189.981L391.103 189.981L391.103 190.956C391.103 191.081 391.066 191.187 390.99 191.275C390.915 191.363 390.797 191.406 390.634 191.406L389.696 191.406L389.434 189.849L386.826 189.362C386.564 189.312 386.432 189.137 386.432 188.837L386.432 187.617L389.452 187.617L389.452 185.085L391.103 185.085L391.103 187.617L396.318 187.617C396.618 187.617 396.855 187.542 397.03 187.392C397.193 187.242 397.274 187.042 397.274 186.792C397.274 186.654 397.249 186.529 397.199 186.417C397.137 186.304 397.08 186.198 397.03 186.098C396.98 185.998 396.955 185.91 396.955 185.835C396.955 185.723 397.024 185.623 397.162 185.535L398.306 184.822C398.569 185.16 398.775 185.548 398.925 185.985C399.075 186.423 399.15 186.879 399.15 187.355ZM399 182.537L389.359 182.537L389.359 180.174L399 180.174L399 182.537ZM399 183.944L397.912 183.944C397.737 183.944 397.606 183.9 397.518 183.813C397.431 183.713 397.368 183.575 397.331 183.4L397.105 182.331L399 182.087L399 183.944ZM399 180.624L397.105 180.38L397.331 179.311C397.368 179.136 397.431 179.004 397.518 178.917C397.606 178.817 397.737 178.767 397.912 178.767L399 178.767L399 180.624ZM389.359 182.087L391.253 182.331L391.028 183.4C390.99 183.575 390.928 183.713 390.84 183.813C390.753 183.9 390.622 183.944 390.447 183.944L389.359 183.944L389.359 182.087ZM388.027 181.318C388.027 181.718 387.883 182.068 387.595 182.368C387.308 182.668 386.964 182.818 386.564 182.818C386.151 182.818 385.801 182.668 385.513 182.368C385.213 182.068 385.063 181.718 385.063 181.318C385.063 180.905 385.213 180.549 385.513 180.249C385.801 179.948 386.151 179.798 386.564 179.798C386.964 179.798 387.308 179.948 387.595 180.249C387.883 180.549 388.027 180.905 388.027 181.318ZM399.15 174.409C399.15 175.147 398.944 175.785 398.531 176.322C398.106 176.848 397.524 177.254 396.787 177.542C396.049 177.829 395.192 177.973 394.217 177.973C393.266 177.973 392.416 177.804 391.666 177.467C390.915 177.129 390.315 176.648 389.865 176.022C389.415 175.397 389.19 174.665 389.19 173.828C389.19 173.29 389.277 172.833 389.452 172.458C389.615 172.083 389.84 171.746 390.128 171.445L385.044 171.445L385.044 169.063L399 169.063L399 170.526C399 170.839 398.856 171.039 398.569 171.127L397.649 171.314C398.1 171.702 398.462 172.152 398.737 172.665C399.013 173.177 399.15 173.759 399.15 174.409ZM397.293 173.603C397.293 173.127 397.193 172.721 396.993 172.383C396.793 172.046 396.511 171.733 396.149 171.445L391.816 171.445C391.503 171.708 391.284 171.989 391.159 172.29C391.034 172.59 390.972 172.915 390.972 173.265C390.972 173.753 391.097 174.165 391.347 174.503C391.597 174.828 391.966 175.078 392.454 175.253C392.929 175.428 393.517 175.516 394.217 175.516C395.217 175.516 395.98 175.36 396.505 175.047C397.03 174.734 397.293 174.253 397.293 173.603ZM385.044 170.976L386.939 171.22L386.714 172.308C386.676 172.471 386.614 172.602 386.526 172.702C386.439 172.802 386.307 172.852 386.132 172.852L385.044 172.852L385.044 170.976ZM399 169.532L397.105 169.288L397.331 168.2C397.368 168.038 397.431 167.906 397.518 167.806C397.606 167.706 397.737 167.656 397.912 167.656L399 167.656L399 169.532ZM399.15 163.985C399.15 164.535 399.05 165.022 398.85 165.448C398.65 165.873 398.356 166.204 397.968 166.442C397.581 166.679 397.099 166.798 396.524 166.798C396.174 166.798 395.824 166.704 395.474 166.517C395.111 166.317 394.786 165.998 394.498 165.56C394.223 165.11 393.992 164.516 393.804 163.778C393.604 163.04 393.492 162.128 393.466 161.04L392.923 161.04C392.272 161.04 391.797 161.177 391.497 161.452C391.184 161.715 391.028 162.103 391.028 162.615C391.028 162.978 391.103 163.316 391.253 163.628C391.391 163.928 391.534 164.21 391.685 164.472C391.822 164.722 391.891 164.966 391.891 165.204C391.891 165.366 391.847 165.51 391.76 165.635C391.672 165.748 391.572 165.835 391.459 165.898L390.709 166.329C390.196 165.767 389.815 165.154 389.565 164.491C389.315 163.816 389.19 163.09 389.19 162.315C389.19 161.565 389.346 160.921 389.659 160.383C389.971 159.845 390.409 159.433 390.972 159.145C391.534 158.857 392.185 158.714 392.923 158.714L399 158.714L399 159.783C399 160.02 398.969 160.202 398.906 160.327C398.844 160.439 398.706 160.533 398.494 160.608L397.818 160.796C398.243 161.283 398.575 161.771 398.812 162.259C399.038 162.734 399.15 163.309 399.15 163.985ZM397.537 163.234C397.537 162.784 397.456 162.39 397.293 162.053C397.118 161.702 396.862 161.365 396.524 161.04L394.911 161.04C394.923 161.59 394.967 162.084 395.042 162.521C395.105 162.947 395.198 163.309 395.323 163.609C395.436 163.897 395.586 164.122 395.774 164.285C395.949 164.435 396.161 164.51 396.411 164.51C396.824 164.51 397.118 164.397 397.293 164.172C397.456 163.935 397.537 163.622 397.537 163.234ZM399 159.183L397.105 158.939L397.331 157.851C397.368 157.688 397.431 157.557 397.518 157.457C397.606 157.357 397.737 157.307 397.912 157.307L399 157.307L399 159.183ZM399.15 152.959C399.15 153.697 398.944 154.334 398.531 154.872C398.106 155.397 397.524 155.804 396.787 156.091C396.049 156.379 395.192 156.523 394.217 156.523C393.266 156.523 392.416 156.354 391.666 156.016C390.915 155.679 390.315 155.197 389.865 154.572C389.415 153.947 389.19 153.215 389.19 152.377C389.19 151.84 389.277 151.383 389.452 151.008C389.615 150.633 389.84 150.295 390.128 149.995L385.044 149.995L385.044 147.613L399 147.613L399 149.076C399 149.389 398.856 149.589 398.569 149.676L397.649 149.864C398.1 150.251 398.462 150.702 398.737 151.214C399.013 151.727 399.15 152.308 399.15 152.959ZM397.293 152.152C397.293 151.677 397.193 151.271 396.993 150.933C396.793 150.595 396.511 150.283 396.149 149.995L391.816 149.995C391.503 150.258 391.284 150.539 391.159 150.839C391.034 151.139 390.972 151.464 390.972 151.815C390.972 152.302 391.097 152.715 391.347 153.053C391.597 153.378 391.966 153.628 392.454 153.803C392.929 153.978 393.517 154.065 394.217 154.065C395.217 154.065 395.98 153.909 396.505 153.596C397.03 153.284 397.293 152.802 397.293 152.152ZM385.044 149.526L386.939 149.77L386.714 150.858C386.676 151.02 386.614 151.152 386.526 151.252C386.439 151.352 386.307 151.402 386.132 151.402L385.044 151.402L385.044 149.526ZM399 148.082L397.105 147.838L397.331 146.75C397.368 146.587 397.431 146.456 397.518 146.356C397.606 146.256 397.737 146.206 397.912 146.206L399 146.206L399 148.082ZM399.15 140.621C399.15 141.584 398.937 142.422 398.512 143.134C398.075 143.847 397.468 144.404 396.693 144.804C395.905 145.192 394.998 145.385 393.973 145.385C393.073 145.385 392.266 145.192 391.553 144.804C390.828 144.416 390.259 143.872 389.846 143.172C389.421 142.472 389.209 141.659 389.209 140.733C389.209 139.896 389.39 139.164 389.752 138.539C390.103 137.901 390.603 137.413 391.253 137.076C391.903 136.726 392.679 136.55 393.579 136.55C393.917 136.55 394.154 136.582 394.292 136.644C394.417 136.707 394.479 136.857 394.479 137.094L394.479 143.003C394.517 143.003 394.554 143.003 394.592 143.003C394.629 143.003 394.667 142.997 394.704 142.984C395.58 142.884 396.236 142.615 396.674 142.178C397.112 141.728 397.331 141.14 397.331 140.415C397.331 140.077 397.262 139.739 397.124 139.402C396.987 139.051 396.849 138.733 396.712 138.445C396.562 138.157 396.486 137.926 396.486 137.751C396.486 137.576 396.555 137.432 396.693 137.32L397.556 136.626C397.943 136.963 398.256 137.357 398.494 137.807C398.731 138.245 398.9 138.708 399 139.195C399.1 139.671 399.15 140.146 399.15 140.621ZM393.073 142.966L393.073 138.67C392.447 138.67 391.928 138.839 391.516 139.177C391.103 139.514 390.897 140.014 390.897 140.677C390.897 141.34 391.084 141.865 391.459 142.253C391.835 142.628 392.372 142.866 393.073 142.966ZM399 126.861L389.359 130.688L389.359 128.718C389.359 128.543 389.402 128.399 389.49 128.287C389.577 128.162 389.684 128.08 389.809 128.043L394.93 126.223C395.192 126.148 395.467 126.073 395.755 125.998C396.043 125.911 396.343 125.829 396.655 125.754C396.38 125.704 396.099 125.642 395.811 125.567C395.511 125.479 395.217 125.379 394.93 125.267L389.809 123.428C389.684 123.378 389.577 123.297 389.49 123.185C389.402 123.072 389.359 122.935 389.359 122.772L389.359 120.896L399 124.723L399 126.861ZM389.978 129.018L389.359 129.018L389.359 127.611L389.978 127.611L389.978 129.018ZM389.978 123.747L389.359 123.747L389.359 122.359L389.978 122.359L389.978 123.747ZM389.359 129.318L391.253 129.562L391.028 130.631C390.99 130.806 390.928 130.944 390.84 131.044C390.753 131.144 390.622 131.194 390.447 131.194L389.359 131.194L389.359 129.318ZM389.359 126.599L390.447 126.599C390.622 126.599 390.753 126.649 390.84 126.749C390.928 126.836 390.99 126.967 391.028 127.142L391.253 128.212L389.359 128.456L389.359 126.599ZM389.359 123.128L391.253 123.372L391.028 124.441C390.99 124.616 390.928 124.754 390.84 124.854C390.753 124.942 390.622 124.985 390.447 124.985L389.359 124.985L389.359 123.128ZM389.359 120.39L390.447 120.39C390.622 120.39 390.753 120.44 390.84 120.54C390.928 120.64 390.99 120.777 391.028 120.952L391.253 122.022L389.359 122.266L389.359 120.39ZM399 118.241L389.359 118.241L389.359 115.877L399 115.877L399 118.241ZM399 119.648L397.912 119.648C397.737 119.648 397.606 119.604 397.518 119.516C397.431 119.416 397.368 119.279 397.331 119.104L397.105 118.034L399 117.791L399 119.648ZM399 116.328L397.105 116.084L397.331 115.015C397.368 114.839 397.431 114.708 397.518 114.621C397.606 114.521 397.737 114.471 397.912 114.471L399 114.471L399 116.328ZM389.359 117.791L391.253 118.034L391.028 119.104C390.99 119.279 390.928 119.416 390.84 119.516C390.753 119.604 390.622 119.648 390.447 119.648L389.359 119.648L389.359 117.791ZM388.027 117.022C388.027 117.422 387.883 117.772 387.595 118.072C387.308 118.372 386.964 118.522 386.564 118.522C386.151 118.522 385.801 118.372 385.513 118.072C385.213 117.772 385.063 117.422 385.063 117.022C385.063 116.609 385.213 116.253 385.513 115.952C385.801 115.652 386.151 115.502 386.564 115.502C386.964 115.502 387.308 115.652 387.595 115.952C387.883 116.253 388.027 116.609 388.027 117.022ZM399.15 110.376C399.15 110.926 399.1 111.476 399 112.026C398.9 112.576 398.781 113.058 398.644 113.471L397.049 113.471L397.012 112.345C397.137 112.195 397.256 111.926 397.368 111.538C397.468 111.151 397.518 110.744 397.518 110.319C397.518 109.794 397.412 109.4 397.199 109.138C396.987 108.875 396.712 108.744 396.374 108.744C396.061 108.744 395.824 108.862 395.661 109.1C395.486 109.325 395.342 109.619 395.23 109.982C395.117 110.332 394.998 110.694 394.873 111.07C394.723 111.507 394.542 111.907 394.329 112.27C394.117 112.633 393.835 112.92 393.485 113.133C393.135 113.345 392.704 113.452 392.191 113.452C391.603 113.452 391.084 113.302 390.634 113.002C390.184 112.689 389.834 112.264 389.584 111.726C389.334 111.176 389.209 110.538 389.209 109.813C389.209 109.275 389.284 108.781 389.434 108.331C389.571 107.868 389.74 107.412 389.94 106.962L391.122 106.962L391.272 108.143C391.197 108.368 391.122 108.612 391.047 108.875C390.959 109.138 390.915 109.425 390.915 109.738C390.915 110.025 390.959 110.282 391.047 110.507C391.134 110.732 391.253 110.907 391.403 111.032C391.553 111.145 391.735 111.201 391.947 111.201C392.235 111.201 392.466 111.076 392.641 110.826C392.804 110.576 392.948 110.263 393.073 109.888C393.185 109.513 393.298 109.163 393.41 108.837C393.548 108.425 393.723 108.043 393.935 107.693C394.136 107.331 394.398 107.043 394.723 106.83C395.048 106.618 395.467 106.511 395.98 106.511C396.605 106.511 397.155 106.668 397.631 106.98C398.106 107.293 398.481 107.737 398.756 108.312C399.019 108.887 399.15 109.575 399.15 110.376ZM390.615 108.631L391.028 106.962L392.491 106.962L392.491 107.824C392.491 108 392.441 108.131 392.341 108.218C392.241 108.306 392.11 108.368 391.947 108.406L390.615 108.631ZM397.781 111.801L397.368 113.471L395.905 113.471L395.905 112.608C395.905 112.42 395.955 112.289 396.055 112.214C396.155 112.126 396.286 112.064 396.449 112.026L397.781 111.801ZM399.15 101.23C399.15 101.931 398.994 102.525 398.681 103.012C398.356 103.5 397.925 103.869 397.387 104.119C396.837 104.369 396.205 104.494 395.492 104.494L389.359 104.494L389.359 102.112L395.492 102.112C396.08 102.112 396.536 101.981 396.862 101.718C397.174 101.455 397.331 101.055 397.331 100.517C397.331 100.117 397.243 99.7484 397.068 99.4108C396.893 99.0731 396.649 98.748 396.336 98.4354L389.359 98.4354L389.359 96.0719L399 96.0719L399 97.5163C399 97.8414 398.856 98.0415 398.569 98.1165L397.818 98.2666C398.206 98.6667 398.525 99.1044 398.775 99.5796C399.025 100.055 399.15 100.605 399.15 101.23ZM399 96.5221L397.105 96.2783L397.331 95.2091C397.368 95.034 397.431 94.9027 397.518 94.8152C397.606 94.7151 397.737 94.6651 397.912 94.6651L399 94.6651L399 96.5221ZM389.359 104.044L391.253 104.269L391.028 105.357C390.99 105.52 390.928 105.651 390.84 105.751C390.753 105.851 390.622 105.901 390.447 105.901L389.359 105.901L389.359 104.044ZM389.359 97.9852L391.253 98.2291L391.028 99.2982C390.99 99.4733 390.928 99.6109 390.84 99.7109C390.753 99.7984 390.622 99.8422 390.447 99.8422L389.359 99.8422L389.359 97.9852ZM399.15 91.0239C399.15 91.5741 399.05 92.0618 398.85 92.487C398.65 92.9122 398.356 93.2436 397.968 93.4812C397.581 93.7188 397.099 93.8376 396.524 93.8376C396.174 93.8376 395.824 93.7438 395.474 93.5562C395.111 93.3561 394.786 93.0372 394.498 92.5996C394.223 92.1494 393.992 91.5554 393.804 90.8176C393.604 90.0798 393.491 89.1669 393.466 88.079L392.923 88.079C392.272 88.079 391.797 88.2165 391.497 88.4916C391.184 88.7542 391.028 89.1419 391.028 89.6546C391.028 90.0173 391.103 90.3549 391.253 90.6675C391.391 90.9676 391.534 91.249 391.685 91.5116C391.822 91.7617 391.891 92.0056 391.891 92.2432C391.891 92.4057 391.847 92.5495 391.76 92.6746C391.672 92.7871 391.572 92.8747 391.459 92.9372L390.709 93.3686C390.196 92.8059 389.815 92.1931 389.565 91.5304C389.315 90.8551 389.19 90.1298 389.19 89.3545C389.19 88.6042 389.346 87.9602 389.659 87.4225C389.971 86.8847 390.409 86.4721 390.972 86.1844C391.534 85.8968 392.185 85.753 392.923 85.753L399 85.753L399 86.8222C399 87.0598 398.969 87.2411 398.906 87.3662C398.844 87.4787 398.706 87.5725 398.494 87.6475L397.818 87.8351C398.243 88.3228 398.575 88.8105 398.812 89.2982C399.038 89.7734 399.15 90.3486 399.15 91.0239ZM397.537 90.2736C397.537 89.8234 397.456 89.4295 397.293 89.0919C397.118 88.7417 396.862 88.4041 396.524 88.079L394.911 88.079C394.923 88.6292 394.967 89.1231 395.042 89.5608C395.105 89.986 395.198 90.3486 395.323 90.6488C395.436 90.9364 395.586 91.1615 395.774 91.324C395.949 91.4741 396.161 91.5491 396.411 91.5491C396.824 91.5491 397.118 91.4366 397.293 91.2115C397.456 90.9739 397.537 90.6613 397.537 90.2736ZM399 86.222L397.105 85.9781L397.331 84.8902C397.368 84.7276 397.431 84.5963 397.518 84.4963C397.606 84.3962 397.737 84.3462 397.912 84.3462L399 84.3462L399 86.222ZM399 82.1177L385.044 82.1177L385.044 79.7542L399 79.7542L399 82.1177ZM399 83.5245L397.912 83.5245C397.737 83.5245 397.606 83.4808 397.518 83.3932C397.431 83.2932 397.368 83.1556 397.331 82.9805L397.105 81.9114L399 81.6675L399 83.5245ZM399 80.2044L397.105 79.9606L397.331 78.8914C397.368 78.7163 397.431 78.585 397.518 78.4975C397.606 78.3974 397.737 78.3474 397.912 78.3474L399 78.3474L399 80.2044ZM385.044 81.6675L386.939 81.9114L386.714 82.9805C386.676 83.1556 386.614 83.2932 386.526 83.3932C386.439 83.4808 386.307 83.5245 386.132 83.5245L385.044 83.5245L385.044 81.6675ZM399 72.4695L398.212 72.4695C398.062 72.4695 397.9 72.4383 397.724 72.3757C397.549 72.3007 397.393 72.1882 397.256 72.0381L393.129 67.9489C392.691 67.5113 392.272 67.1361 391.872 66.8235C391.459 66.4984 391.034 66.2483 390.597 66.0732C390.159 65.8856 389.702 65.7918 389.227 65.7918C388.79 65.7918 388.427 65.8668 388.139 66.0169C387.839 66.167 387.62 66.3858 387.483 66.6734C387.333 66.961 387.258 67.3112 387.258 67.7239C387.258 68.2366 387.402 68.6805 387.689 69.0556C387.977 69.4308 388.346 69.6809 388.796 69.806C389.033 69.8935 389.209 69.9998 389.321 70.1248C389.421 70.2499 389.471 70.425 389.471 70.65C389.471 70.7501 389.452 70.9127 389.415 71.1377C389.377 71.3628 389.309 71.7255 389.209 72.2257C387.933 72.0381 386.958 71.5254 386.282 70.6876C385.607 69.8497 385.269 68.818 385.269 67.5925C385.269 66.7547 385.432 66.0169 385.757 65.3791C386.07 64.7414 386.52 64.2474 387.108 63.8973C387.683 63.5346 388.364 63.3533 389.152 63.3533C389.802 63.3533 390.403 63.4784 390.953 63.7285C391.491 63.9786 392.003 64.31 392.491 64.7226C392.979 65.1353 393.473 65.5855 393.973 66.0732L397.105 69.1119C397.018 68.8118 396.949 68.5117 396.899 68.2116C396.849 67.8989 396.824 67.6113 396.824 67.3487L396.824 63.1282L399 63.1282L399 72.4695ZM397.256 64.7977L395.924 64.5726C395.761 64.5351 395.63 64.4725 395.53 64.385C395.43 64.2975 395.38 64.1662 395.38 63.9911L395.38 63.1282L396.843 63.1282L397.256 64.7977ZM392.21 51.7501C393.398 51.7501 394.429 51.8814 395.305 52.144C396.168 52.3941 396.88 52.7443 397.443 53.1945C398.018 53.6321 398.45 54.1574 398.737 54.7701C399.012 55.3828 399.15 56.0456 399.15 56.7584C399.15 57.4587 399.012 58.1152 398.737 58.728C398.45 59.3282 398.018 59.8534 397.443 60.3036C396.88 60.7413 396.168 61.0914 395.305 61.354C394.429 61.6041 393.398 61.7292 392.21 61.7292C391.022 61.7292 389.996 61.6041 389.133 61.354C388.258 61.0914 387.533 60.7413 386.958 60.3036C386.395 59.8534 385.976 59.3282 385.701 58.728C385.413 58.1152 385.269 57.4587 385.269 56.7584C385.269 56.0456 385.413 55.3829 385.701 54.7701C385.976 54.1574 386.395 53.6321 386.958 53.1945C387.533 52.7443 388.258 52.3941 389.133 52.144C389.996 51.8814 391.022 51.7501 392.21 51.7501ZM392.21 54.2074C391.234 54.2074 390.428 54.2824 389.79 54.4325C389.14 54.57 388.621 54.7513 388.233 54.9764C387.858 55.2265 387.595 55.5016 387.445 55.8018C387.295 56.1019 387.22 56.4208 387.22 56.7584C387.22 57.071 387.295 57.3837 387.445 57.6963C387.595 57.9964 387.858 58.2653 388.233 58.5029C388.621 58.728 389.14 58.9155 389.79 59.0656C390.428 59.2032 391.234 59.2719 392.21 59.2719C393.198 59.2719 394.01 59.2032 394.648 59.0656C395.286 58.9155 395.799 58.728 396.186 58.5029C396.561 58.2653 396.824 57.9964 396.974 57.6963C397.124 57.3837 397.199 57.0648 397.199 56.7397C397.199 56.427 397.124 56.1207 396.974 55.8205C396.824 55.5079 396.561 55.2328 396.186 54.9952C395.799 54.7576 395.286 54.57 394.648 54.4325C394.01 54.2824 393.198 54.2074 392.21 54.2074ZM399 50.433L398.212 50.433C398.062 50.433 397.9 50.4017 397.724 50.3392C397.549 50.2642 397.393 50.1516 397.256 50.0016L393.129 45.9124C392.691 45.4747 392.272 45.0996 391.872 44.7869C391.459 44.4618 391.034 44.2117 390.597 44.0366C390.159 43.849 389.702 43.7553 389.227 43.7553C388.79 43.7553 388.427 43.8303 388.139 43.9803C387.839 44.1304 387.62 44.3492 387.483 44.6369C387.333 44.9245 387.258 45.2746 387.258 45.6873C387.258 46.2 387.402 46.6439 387.689 47.0191C387.977 47.3942 388.346 47.6443 388.796 47.7694C389.033 47.8569 389.209 47.9632 389.321 48.0883C389.421 48.2133 389.471 48.3884 389.471 48.6135C389.471 48.7135 389.452 48.8761 389.415 49.1012C389.377 49.3263 389.309 49.6889 389.209 50.1891C387.933 50.0016 386.958 49.4888 386.282 48.651C385.607 47.8132 385.269 46.7815 385.269 45.556C385.269 44.7181 385.432 43.9803 385.757 43.3426C386.07 42.7048 386.52 42.2109 387.108 41.8607C387.683 41.4981 388.364 41.3168 389.152 41.3168C389.802 41.3168 390.403 41.4418 390.953 41.6919C391.491 41.942 392.003 42.2734 392.491 42.6861C392.979 43.0987 393.473 43.5489 393.973 44.0366L397.105 47.0754C397.018 46.7752 396.949 46.4751 396.899 46.175C396.849 45.8624 396.824 45.5747 396.824 45.3121L396.824 41.0917L399 41.0917L399 50.433ZM397.256 42.7611L395.924 42.536C395.761 42.4985 395.63 42.436 395.53 42.3484C395.43 42.2609 395.38 42.1296 395.38 41.9545L395.38 41.0917L396.843 41.0917L397.256 42.7611ZM399 33.2025L395.68 33.2025L395.68 38.886C395.68 39.0361 395.636 39.1799 395.549 39.3174C395.449 39.4425 395.33 39.5175 395.192 39.5425L393.992 39.7864L385.419 33.3713L385.419 31.1204L393.879 31.1204L393.879 29.4509L395.23 29.4509C395.355 29.4509 395.461 29.4884 395.549 29.5635C395.636 29.6385 395.68 29.7573 395.68 29.9199L395.68 31.1204L399 31.1204L399 33.2025ZM393.879 37.2729L393.879 33.2025L389.471 33.2025C389.271 33.2025 389.065 33.1962 388.852 33.1837C388.627 33.1587 388.389 33.1337 388.139 33.1087L393.879 37.2729Z" fill="black"/>
<defs>
<linearGradient id="paint0_linear_243_79" x1="43.1652" y1="2.75544" x2="43.1652" y2="81.2356" gradientUnits="userSpaceOnUse">
<stop stop-color="#F0B90B"/>
<stop offset="0.259938"/>
</linearGradient>
<linearGradient id="paint1_linear_243_79" x1="114.077" y1="2.75541" x2="114.077" y2="81.2355" gradientUnits="userSpaceOnUse">
<stop stop-color="#F0B90B"/>
<stop offset="0.259938"/>
</linearGradient>
<linearGradient id="paint2_linear_243_79" x1="178.08" y1="0.000519172" x2="178.08" y2="83.9896" gradientUnits="userSpaceOnUse">
<stop stop-color="#F0B90B"/>
<stop offset="0.259938"/>
</linearGradient>
<linearGradient id="paint3_linear_243_79" x1="226.17" y1="2.75544" x2="226.17" y2="81.2356" gradientUnits="userSpaceOnUse">
<stop stop-color="#F0B90B"/>
<stop offset="0.259938"/>
</linearGradient>
<linearGradient id="paint4_linear_243_79" x1="283.26" y1="5.91798e-05" x2="283.26" y2="83.767" gradientUnits="userSpaceOnUse">
<stop stop-color="#F0B90B"/>
<stop offset="0.259938"/>
</linearGradient>
<linearGradient id="paint5_linear_243_79" x1="368.158" y1="2.75541" x2="368.158" y2="81.2355" gradientUnits="userSpaceOnUse">
<stop stop-color="#F0B90B"/>
<stop offset="0.259938"/>
</linearGradient>
<linearGradient id="paint6_linear_243_79" x1="43.1652" y1="193.633" x2="43.1652" y2="272.113" gradientUnits="userSpaceOnUse">
<stop offset="0.583684"/>
<stop offset="0.990385" stop-color="#F0B90B"/>
</linearGradient>
<linearGradient id="paint7_linear_243_79" x1="114.077" y1="193.633" x2="114.077" y2="272.113" gradientUnits="userSpaceOnUse">
<stop offset="0.583684"/>
<stop offset="0.990385" stop-color="#F0B90B"/>
</linearGradient>
<linearGradient id="paint8_linear_243_79" x1="178.08" y1="190.878" x2="178.08" y2="274.867" gradientUnits="userSpaceOnUse">
<stop offset="0.583684"/>
<stop offset="0.990385" stop-color="#F0B90B"/>
</linearGradient>
<linearGradient id="paint9_linear_243_79" x1="226.17" y1="193.633" x2="226.17" y2="272.113" gradientUnits="userSpaceOnUse">
<stop offset="0.583684"/>
<stop offset="0.990385" stop-color="#F0B90B"/>
</linearGradient>
<linearGradient id="paint10_linear_243_79" x1="283.26" y1="190.878" x2="283.26" y2="274.645" gradientUnits="userSpaceOnUse">
<stop offset="0.583684"/>
<stop offset="0.990385" stop-color="#F0B90B"/>
</linearGradient>
<linearGradient id="paint11_linear_243_79" x1="368.158" y1="193.633" x2="368.158" y2="272.113" gradientUnits="userSpaceOnUse">
<stop offset="0.583684"/>
<stop offset="0.990385" stop-color="#F0B90B"/>
</linearGradient>
</defs>
</svg>
