<svg width="1600" height="890" viewBox="0 0 1600 890" fill="none" xmlns="http://www.w3.org/2000/svg">
<path d="M0 92.5065C0 90.2257 1.84895 88.3767 4.12975 88.3767V116.459C1.84895 116.459 0 114.61 0 112.329V92.5065Z" fill="#FCE9D8"/>
<path d="M0 140.411C0 138.131 1.84895 136.282 4.12975 136.282V187.491C1.84895 187.491 0 185.642 0 183.361V140.411Z" fill="#FCE9D8"/>
<path d="M0 201.532C0 199.251 1.84895 197.402 4.12975 197.402V248.611C1.84895 248.611 0 246.762 0 244.481V201.532Z" fill="#FCE9D8"/>
<path d="M336.987 152.801C339.268 152.801 341.117 154.65 341.117 156.931V230.44C341.117 232.721 339.268 234.57 336.987 234.57V152.801Z" fill="#FCE9D8"/>
<rect x="146.193" y="25.6045" width="46.2532" height="5.78165" rx="2.89083" fill="#D9D9D9"/>
<rect x="205.661" y="23.9526" width="9.08545" height="9.08545" rx="4.54273" fill="#D9D9D9"/>
<rect x="14" y="14" width="308" height="648" rx="34" fill="#D9D9D9"/>
<path d="M288.626 3.30371H53.5864C28.1126 3.30371 7.43359 23.9822 7.43359 49.4553V625.55C7.43359 651.023 28.1126 671.695 53.5864 671.695H288.626C314.099 671.695 334.772 651.023 334.772 625.55V49.4553C334.772 23.9822 314.099 3.30371 288.626 3.30371ZM210.39 24.478C212.706 24.478 214.526 26.2979 214.526 28.6136C214.526 30.9294 212.706 32.7493 210.39 32.7493C208.074 32.7493 206.254 30.9294 206.254 28.6136C206.254 26.2979 208.237 24.478 210.39 24.478ZM149.357 25.8021H189.052C190.539 25.8021 191.864 26.9569 191.864 28.6136C191.864 30.2643 190.539 31.4252 189.052 31.4252H149.357C147.863 31.4252 146.539 30.2643 146.539 28.6136C146.539 26.9569 147.863 25.8021 149.357 25.8021ZM317.903 628.192C317.903 643.247 305.665 655.485 290.609 655.485H51.9297C36.88 655.485 24.6359 643.247 24.6359 628.192V47.6354C24.6359 32.58 36.88 20.3423 51.9297 20.3423H87.4891V27.7853C87.4891 36.2199 94.4365 43.1672 102.877 43.1672H239.667C248.102 43.1672 255.049 36.2199 255.049 27.7853V20.3423H290.446C305.495 20.3423 317.739 32.58 317.739 47.6354V628.192H317.903Z" fill="black"/>
<path d="M338.083 154.32V49.4529C338.083 45.9823 337.757 42.6689 337.092 39.5309C336.765 37.8742 336.433 36.3868 335.937 34.7301C335.272 32.4144 334.28 30.0986 333.289 27.9522C332.63 26.4648 331.801 25.1406 330.973 23.8165C330.144 22.4923 329.322 21.1682 328.324 19.844C326.837 17.8609 325.35 16.2102 323.693 14.3903C322.538 13.2294 321.383 12.2378 320.222 11.2462C311.624 4.13569 300.704 0 288.792 0H53.5901C41.6786 0 30.5954 4.29894 22.1605 11.2462C21.0056 12.2378 19.8447 13.3987 18.6898 14.3903C17.0331 16.0409 15.3764 17.8609 14.0582 19.844C13.0605 21.1682 12.2382 22.4923 11.4099 23.8165C10.5815 25.1406 9.75312 26.628 9.09405 27.9522C7.93312 30.2679 7.1108 32.4144 6.28243 34.7301C5.78662 36.3868 5.45406 37.8742 5.12151 39.5309C4.46244 42.6689 4.12988 46.1456 4.12988 49.4529V625.547C4.12988 652.84 26.2963 675 53.5901 675H288.629C315.923 675 338.083 652.84 338.083 625.547V154.32ZM334.776 154.32V625.71C334.776 651.184 314.103 671.862 288.629 671.862H53.5901C28.1163 671.862 7.43731 651.184 7.43731 625.71V49.6162C7.43731 23.9797 28.1163 3.30734 53.5901 3.30734H288.629C314.103 3.30734 334.776 23.9797 334.776 49.4529V154.32Z" fill="#FCE9D8"/>
<path d="M391.117 307.506C391.117 305.226 392.966 303.377 395.247 303.377V331.459C392.966 331.459 391.117 329.61 391.117 327.329V307.506Z" fill="#FCE9D8"/>
<path d="M391.117 355.411C391.117 353.131 392.966 351.282 395.247 351.282V402.491C392.966 402.491 391.117 400.642 391.117 398.361V355.411Z" fill="#FCE9D8"/>
<rect x="537.311" y="240.604" width="46.2532" height="5.78165" rx="2.89083" fill="#D9D9D9"/>
<rect x="596.778" y="238.953" width="9.08545" height="9.08545" rx="4.54273" fill="#D9D9D9"/>
<rect x="412" y="225" width="308" height="648" rx="34" fill="#D9D9D9"/>
<path d="M679.743 218.304H444.704C419.23 218.304 398.551 238.982 398.551 264.455V840.55C398.551 866.023 419.23 886.695 444.704 886.695H679.743C705.217 886.695 725.89 866.023 725.89 840.55V264.455C725.89 238.982 705.217 218.304 679.743 218.304ZM601.507 239.478C603.823 239.478 605.643 241.298 605.643 243.614C605.643 245.929 603.823 247.749 601.507 247.749C599.191 247.749 597.371 245.929 597.371 243.614C597.371 241.298 599.355 239.478 601.507 239.478ZM540.474 240.802H580.169C581.657 240.802 582.981 241.957 582.981 243.614C582.981 245.264 581.657 246.425 580.169 246.425H540.474C538.98 246.425 537.656 245.264 537.656 243.614C537.656 241.957 538.98 240.802 540.474 240.802ZM709.02 843.192C709.02 858.247 696.782 870.485 681.726 870.485H443.047C427.997 870.485 415.753 858.247 415.753 843.192V262.635C415.753 247.58 427.997 235.342 443.047 235.342H478.606V242.785C478.606 251.22 485.554 258.167 493.995 258.167H630.784C639.219 258.167 646.167 251.22 646.167 242.785V235.342H681.563C696.612 235.342 708.857 247.58 708.857 262.635V843.192H709.02Z" fill="black"/>
<path d="M729.201 369.32V264.453C729.201 260.982 728.874 257.669 728.209 254.531C727.882 252.874 727.55 251.387 727.054 249.73C726.389 247.414 725.397 245.099 724.406 242.952C723.747 241.465 722.918 240.141 722.09 238.816C721.262 237.492 720.439 236.168 719.442 234.844C717.954 232.861 716.467 231.21 714.81 229.39C713.655 228.229 712.5 227.238 711.339 226.246C702.741 219.136 691.821 215 679.91 215H444.707C432.796 215 421.713 219.299 413.278 226.246C412.123 227.238 410.962 228.399 409.807 229.39C408.15 231.041 406.494 232.861 405.175 234.844C404.178 236.168 403.355 237.492 402.527 238.816C401.699 240.141 400.87 241.628 400.211 242.952C399.05 245.268 398.228 247.414 397.4 249.73C396.904 251.387 396.571 252.874 396.239 254.531C395.58 257.669 395.247 261.146 395.247 264.453V840.547C395.247 867.84 417.413 890 444.707 890H679.746C707.04 890 729.201 867.84 729.201 840.547V369.32ZM725.893 369.32V840.71C725.893 866.184 705.22 886.862 679.746 886.862H444.707C419.233 886.862 398.554 866.184 398.554 840.71V264.616C398.554 238.98 419.233 218.307 444.707 218.307H679.746C705.22 218.307 725.893 238.98 725.893 264.453V369.32Z" fill="#FCE9D8"/>
<path d="M391.117 416.532C391.117 414.251 392.966 412.402 395.247 412.402V463.611C392.966 463.611 391.117 461.762 391.117 459.482V416.532Z" fill="#FCE9D8"/>
<path d="M728.104 367.801C730.385 367.801 732.234 369.65 732.234 371.931V445.44C732.234 447.721 730.385 449.57 728.104 449.57V367.801Z" fill="#FCE9D8"/>
<rect x="1276" y="228" width="308" height="648" rx="34" fill="#D9D9D9"/>
<path d="M1546.63 218.304H1311.59C1286.11 218.304 1265.43 238.982 1265.43 264.455V840.55C1265.43 866.023 1286.11 886.695 1311.59 886.695H1546.63C1572.1 886.695 1592.77 866.023 1592.77 840.55V264.455C1592.77 238.982 1572.1 218.304 1546.63 218.304ZM1468.39 239.478C1470.71 239.478 1472.53 241.298 1472.53 243.614C1472.53 245.929 1470.71 247.749 1468.39 247.749C1466.07 247.749 1464.25 245.929 1464.25 243.614C1464.25 241.298 1466.24 239.478 1468.39 239.478ZM1407.36 240.802H1447.05C1448.54 240.802 1449.86 241.957 1449.86 243.614C1449.86 245.264 1448.54 246.425 1447.05 246.425H1407.36C1405.86 246.425 1404.54 245.264 1404.54 243.614C1404.54 241.957 1405.86 240.802 1407.36 240.802ZM1575.9 843.192C1575.9 858.247 1563.66 870.485 1548.61 870.485H1309.93C1294.88 870.485 1282.64 858.247 1282.64 843.192V262.635C1282.64 247.58 1294.88 235.342 1309.93 235.342H1345.49V242.785C1345.49 251.22 1352.44 258.167 1360.88 258.167H1497.67C1506.1 258.167 1513.05 251.22 1513.05 242.785V235.342H1548.45C1563.5 235.342 1575.74 247.58 1575.74 262.635V843.192H1575.9Z" fill="black"/>
<path d="M1596.08 369.32V264.453C1596.08 260.982 1595.76 257.669 1595.09 254.531C1594.77 252.874 1594.43 251.387 1593.94 249.73C1593.27 247.414 1592.28 245.099 1591.29 242.952C1590.63 241.465 1589.8 240.141 1588.97 238.816C1588.14 237.492 1587.32 236.168 1586.32 234.844C1584.84 232.861 1583.35 231.21 1581.69 229.39C1580.54 228.229 1579.38 227.238 1578.22 226.246C1569.62 219.136 1558.7 215 1546.79 215H1311.59C1299.68 215 1288.6 219.299 1280.16 226.246C1279.01 227.238 1277.84 228.399 1276.69 229.39C1275.03 231.041 1273.38 232.861 1272.06 234.844C1271.06 236.168 1270.24 237.492 1269.41 238.816C1268.58 240.141 1267.75 241.628 1267.09 242.952C1265.93 245.268 1265.11 247.414 1264.28 249.73C1263.79 251.387 1263.45 252.874 1263.12 254.531C1262.46 257.669 1262.13 261.146 1262.13 264.453V840.547C1262.13 867.84 1284.3 890 1311.59 890H1546.63C1573.92 890 1596.08 867.84 1596.08 840.547V369.32ZM1592.78 369.32V840.71C1592.78 866.184 1572.1 886.862 1546.63 886.862H1311.59C1286.12 886.862 1265.44 866.184 1265.44 840.71V264.616C1265.44 238.98 1286.12 218.307 1311.59 218.307H1546.63C1572.1 218.307 1592.78 238.98 1592.78 264.453V369.32Z" fill="#FCE9D8"/>
<path d="M1258 307.506C1258 305.226 1259.85 303.377 1262.13 303.377V331.459C1259.85 331.459 1258 329.61 1258 327.329V307.506Z" fill="#FCE9D8"/>
<path d="M1258 355.411C1258 353.131 1259.85 351.282 1262.13 351.282V402.491C1259.85 402.491 1258 400.642 1258 398.361V355.411Z" fill="#FCE9D8"/>
<path d="M1258 416.532C1258 414.251 1259.85 412.402 1262.13 412.402V463.611C1259.85 463.611 1258 461.762 1258 459.482V416.532Z" fill="#FCE9D8"/>
<path d="M1594.99 367.801C1597.27 367.801 1599.12 369.65 1599.12 371.931V445.44C1599.12 447.721 1597.27 449.57 1594.99 449.57V367.801Z" fill="#FCE9D8"/>
<rect x="1404.19" y="240.604" width="46.2532" height="5.78165" rx="2.89083" fill="#D9D9D9"/>
<rect x="1463.66" y="238.953" width="9.08545" height="9.08545" rx="4.54273" fill="#D9D9D9"/>
<rect x="846" y="13" width="308" height="648" rx="34" fill="#D9D9D9"/>
<path d="M1116.63 3.30371H881.586C856.113 3.30371 835.434 23.9822 835.434 49.4553V625.55C835.434 651.023 856.113 671.695 881.586 671.695H1116.63C1142.1 671.695 1162.77 651.023 1162.77 625.55V49.4553C1162.77 23.9822 1142.1 3.30371 1116.63 3.30371ZM1038.39 24.478C1040.71 24.478 1042.53 26.2979 1042.53 28.6136C1042.53 30.9294 1040.71 32.7493 1038.39 32.7493C1036.07 32.7493 1034.25 30.9294 1034.25 28.6136C1034.25 26.2979 1036.24 24.478 1038.39 24.478ZM977.357 25.8021H1017.05C1018.54 25.8021 1019.86 26.9569 1019.86 28.6136C1019.86 30.2643 1018.54 31.4252 1017.05 31.4252H977.357C975.863 31.4252 974.539 30.2643 974.539 28.6136C974.539 26.9569 975.863 25.8021 977.357 25.8021ZM1145.9 628.192C1145.9 643.247 1133.66 655.485 1118.61 655.485H879.93C864.88 655.485 852.636 643.247 852.636 628.192V47.6354C852.636 32.58 864.88 20.3423 879.93 20.3423H915.489V27.7853C915.489 36.2199 922.437 43.1672 930.877 43.1672H1067.67C1076.1 43.1672 1083.05 36.2199 1083.05 27.7853V20.3423H1118.45C1133.5 20.3423 1145.74 32.58 1145.74 47.6354V628.192H1145.9Z" fill="black"/>
<path d="M1166.08 154.32V49.4529C1166.08 45.9823 1165.76 42.6689 1165.09 39.5309C1164.77 37.8742 1164.43 36.3868 1163.94 34.7301C1163.27 32.4144 1162.28 30.0986 1161.29 27.9522C1160.63 26.4648 1159.8 25.1406 1158.97 23.8165C1158.14 22.4923 1157.32 21.1682 1156.32 19.844C1154.84 17.8609 1153.35 16.2102 1151.69 14.3903C1150.54 13.2294 1149.38 12.2378 1148.22 11.2462C1139.62 4.13569 1128.7 0 1116.79 0H881.59C869.679 0 858.595 4.29894 850.161 11.2462C849.006 12.2378 847.845 13.3987 846.69 14.3903C845.033 16.0409 843.376 17.8609 842.058 19.844C841.061 21.1682 840.238 22.4923 839.41 23.8165C838.581 25.1406 837.753 26.628 837.094 27.9522C835.933 30.2679 835.111 32.4144 834.282 34.7301C833.787 36.3868 833.454 37.8742 833.122 39.5309C832.462 42.6689 832.13 46.1456 832.13 49.4529V625.547C832.13 652.84 854.296 675 881.59 675H1116.63C1143.92 675 1166.08 652.84 1166.08 625.547V154.32ZM1162.78 154.32V625.71C1162.78 651.184 1142.1 671.862 1116.63 671.862H881.59C856.116 671.862 835.437 651.184 835.437 625.71V49.6162C835.437 23.9797 856.116 3.30734 881.59 3.30734H1116.63C1142.1 3.30734 1162.78 23.9797 1162.78 49.4529V154.32Z" fill="#FCE9D8"/>
<path d="M828 92.5065C828 90.2257 829.849 88.3767 832.13 88.3767V88.3767V116.459V116.459C829.849 116.459 828 114.61 828 112.329V92.5065Z" fill="#FCE9D8"/>
<path d="M828 140.411C828 138.131 829.849 136.282 832.13 136.282V136.282V187.491V187.491C829.849 187.491 828 185.642 828 183.361V140.411Z" fill="#FCE9D8"/>
<path d="M828 201.532C828 199.251 829.849 197.402 832.13 197.402V197.402V248.611V248.611C829.849 248.611 828 246.762 828 244.481V201.532Z" fill="#FCE9D8"/>
<path d="M1164.99 152.801V152.801C1167.27 152.801 1169.12 154.65 1169.12 156.931V230.44C1169.12 232.721 1167.27 234.57 1164.99 234.57V234.57V152.801Z" fill="#FCE9D8"/>
<rect x="974.193" y="25.6045" width="46.2532" height="5.78165" rx="2.89083" fill="#D9D9D9"/>
<rect x="1033.66" y="23.9526" width="9.08545" height="9.08545" rx="4.54273" fill="#D9D9D9"/>
</svg>
