<svg width="380" height="752" viewBox="0 0 380 752" fill="none" xmlns="http://www.w3.org/2000/svg">
<rect x="20.0508" y="14.4818" width="343.107" height="721.861" rx="37.8754" fill="#D9D9D9"/>
<path d="M321.524 3.6803H59.6947C31.3173 3.6803 8.28125 26.7157 8.28125 55.0924V696.852C8.28125 725.228 31.3173 748.257 59.6947 748.257H321.524C349.902 748.257 372.931 725.228 372.931 696.852V55.0924C372.931 26.7157 349.902 3.6803 321.524 3.6803ZM234.371 27.268C236.951 27.268 238.979 29.2954 238.979 31.8751C238.979 34.4548 236.951 36.4822 234.371 36.4822C231.792 36.4822 229.764 34.4548 229.764 31.8751C229.764 29.2954 231.973 27.268 234.371 27.268ZM166.381 28.7431H210.601C212.258 28.7431 213.733 30.0296 213.733 31.8751C213.733 33.7139 212.258 35.0071 210.601 35.0071H166.381C164.718 35.0071 163.242 33.7139 163.242 31.8751C163.242 30.0296 164.718 28.7431 166.381 28.7431ZM354.139 699.795C354.139 716.567 340.506 730.199 323.734 730.199H57.8492C41.084 730.199 27.4443 716.567 27.4443 699.795V53.065C27.4443 36.2936 41.084 22.661 57.8492 22.661H97.4617V30.9524C97.4617 40.3484 105.201 48.0875 114.604 48.0875H266.986C276.382 48.0875 284.121 40.3484 284.121 30.9524V22.661H323.552C340.317 22.661 353.957 36.2936 353.957 53.065V699.795H354.139Z" fill="black"/>
<path d="M376.616 171.91V55.0897C376.616 51.2235 376.253 47.5325 375.512 44.0368C375.148 42.1912 374.777 40.5343 374.225 38.6888C373.484 36.1091 372.38 33.5294 371.275 31.1383C370.541 29.4813 369.618 28.0062 368.695 26.5312C367.772 25.0561 366.856 23.581 365.745 22.1059C364.088 19.8967 362.431 18.0579 360.585 16.0305C359.299 14.7373 358.012 13.6327 356.719 12.528C347.141 4.60709 334.976 0 321.707 0H59.6956C46.4263 0 34.0798 4.78895 24.6835 12.528C23.397 13.6327 22.1037 14.9259 20.8172 16.0305C18.9716 17.8693 17.126 19.8967 15.6577 22.1059C14.5463 23.581 13.6302 25.0561 12.7074 26.5312C11.7846 28.0062 10.8618 29.6632 10.1277 31.1383C8.8344 33.718 7.91835 36.1091 6.99556 38.6888C6.44323 40.5343 6.07277 42.1912 5.70231 44.0368C4.96812 47.5325 4.59766 51.4054 4.59766 55.0897V696.849C4.59766 727.253 29.2907 751.939 59.6956 751.939H321.525C351.93 751.939 376.616 727.253 376.616 696.849V171.91ZM372.932 171.91V697.031C372.932 725.408 349.903 748.443 321.525 748.443H59.6956C31.3181 748.443 8.28208 725.408 8.28208 697.031V55.2716C8.28208 26.713 31.3181 3.68432 59.6956 3.68432H321.525C349.903 3.68432 372.932 26.713 372.932 55.0897V171.91Z" fill="#FCE9D8"/>
<path d="M0 103.051C0 100.51 2.05965 98.4502 4.60037 98.4502V129.733C2.05965 129.733 0 127.673 0 125.132V103.051Z" fill="#FCE9D8"/>
<path d="M0 156.416C0 153.875 2.0597 151.815 4.60047 151.815V208.861C2.0597 208.861 0 206.802 0 204.261V156.416Z" fill="#FCE9D8"/>
<path d="M0 224.503C0 221.963 2.0597 219.903 4.60047 219.903V276.949C2.0597 276.949 0 274.889 0 272.348V224.503Z" fill="#FCE9D8"/>
<path d="M375.4 170.217C377.941 170.217 380.001 172.277 380.001 174.818V256.706C380.001 259.247 377.941 261.307 375.4 261.307V170.217Z" fill="#FCE9D8"/>
<rect x="162.857" y="28.5229" width="51.5253" height="6.44066" rx="3.22033" fill="#D9D9D9"/>
<rect x="229.102" y="26.683" width="10.1203" height="10.1203" rx="5.06014" fill="#D9D9D9"/>
</svg>
