<svg width="73" height="328" viewBox="0 0 73 328" fill="none" xmlns="http://www.w3.org/2000/svg">
<path d="M0.500977 318.192V327.5H71.7383V318.192H0.500977ZM0.500977 0.5V317.123H71.7383V0.5H0.500977Z" fill="#B6B6B6" stroke="black"/>
<path d="M6.87988 6.60217V243.534H65.4316V6.60217H6.87988Z" fill="#FFFDFD" stroke="black"/>
<path d="M47.0219 269.427V310.121H6.32728V269.427H47.0219ZM12.4994 303.949H40.8498V275.599H12.4994V303.949ZM61.7402 301.237V310.191H52.7866V301.237H61.7402ZM54.1444 308.767H60.3863V302.525H54.1444V308.767Z" fill="black"/>
<path d="M25.1804 291.877H65.8789V251.183H25.1804V291.877ZM56.9253 297.168H65.8789V306.121H56.9253V297.168Z" fill="#F7D101"/>
<path d="M7.0772 258.845L8.90827 260.815V258.236C8.90827 255.59 11.0768 253.487 13.6566 253.487H16.3024L14.3316 251.656L14.8088 251.183L17.6562 253.829L14.8088 256.474L14.3316 255.997L16.3024 254.166H13.6566C11.3484 254.166 9.51733 255.997 9.51733 258.305V260.947L11.3484 258.98L11.8256 259.458L9.17982 262.305L6.53409 259.458L7.0772 258.845Z" fill="black"/>
<path d="M40.2325 322.298C40.2325 323.249 40.9773 323.997 41.9278 323.997C42.8782 323.997 43.623 323.249 43.623 322.298C43.623 321.352 42.8782 320.603 41.9278 320.603C40.9773 320.603 40.2325 321.352 40.2325 322.298ZM36.163 320.603C37.1135 320.603 37.8583 321.352 37.8583 322.298C37.8583 323.249 37.1135 323.997 36.163 323.997C35.2126 323.997 34.4677 323.249 34.4677 322.298C34.4677 321.352 35.2126 320.603 36.163 320.603ZM30.3284 320.603C31.2789 320.603 32.0237 321.352 32.0237 322.298C32.0237 323.249 31.2789 323.997 30.3284 323.997C29.378 323.997 28.6332 323.249 28.6332 322.298C28.703 321.352 29.4478 320.603 30.3284 320.603Z" fill="black"/>
<path d="M42.4785 49.0892C42.4785 45.8345 46.0708 43.3246 50.8192 43.3246C56.0447 43.3246 59.5012 45.6289 59.5012 49.159C59.5012 51.8047 57.5344 52.887 55.7033 53.6357C55.8391 53.9072 55.9749 54.1749 55.9749 54.4464C55.9749 55.5326 54.8227 56.3473 53.3291 56.3473C53.0576 56.3473 52.786 56.2775 52.5145 56.2115C52.7201 57.2279 53.6007 57.6352 53.6007 57.6352L53.3291 58.1783C53.2632 58.1783 51.9054 57.4994 51.8395 55.94C51.2265 55.6684 50.8192 55.1951 50.6834 54.652C46.6139 54.718 42.4785 52.4796 42.4785 49.0892ZM55.296 54.5163C55.296 54.3107 55.23 54.1089 55.0943 53.9732C55.0244 53.9732 55.0244 54.0391 54.9585 54.0391C53.7365 54.5163 52.6502 54.9895 52.4485 55.7382C52.7201 55.8042 52.9916 55.874 53.2632 55.874C54.3455 55.7382 55.296 55.1951 55.296 54.5163ZM51.7696 55.3969C52.0412 54.4464 53.1934 53.9732 54.4154 53.4999C54.0779 53.3641 53.6705 53.2283 53.1934 53.2283C52.1071 53.2283 51.1606 53.8374 51.1606 54.5163C51.2265 54.7878 51.4321 55.1253 51.7696 55.3969ZM50.6175 54.1749C50.8192 53.2283 51.9054 52.5495 53.2632 52.5495C54.0779 52.5495 54.7529 52.7512 55.23 53.1585C57.0611 52.4137 58.8922 51.4633 58.8922 49.159C58.8922 46.0362 55.6374 44.0034 50.8192 44.0034C46.4122 44.0034 43.1574 46.172 43.1574 49.0892C43.1574 52.0723 46.9553 54.1089 50.6175 54.1749ZM43.2234 26.1666H42.5445V28.1333H44.5113V27.4545H43.2234V26.1666ZM55.3658 27.5204H51.9752V28.1993H55.3658V27.5204ZM49.9386 27.5204H46.548V28.1993H49.9386V27.5204ZM58.7564 27.5204H57.4684V28.1993H59.4353V26.2325H58.7564V27.5204ZM58.7564 24.6032H59.4353V22.0274H58.7564V24.6032ZM58.7564 20.4679H59.4353V17.8921H58.7564V20.4679ZM59.3654 14.296H57.3986V14.9749H58.6866V16.2628H59.3654V14.296ZM49.9386 14.296H46.548V14.9749H49.9386V14.296ZM55.3658 14.296H51.9752V14.9749H55.3658V14.296ZM42.6143 14.296V16.2628H43.2932V14.9749H44.5812V14.296H42.6143ZM43.2234 22.0274H42.5445V24.6032H43.2234V22.0274ZM43.2234 17.8223H42.5445V20.3981H43.2234V17.8223ZM41.594 163.307H52.4485L60.1801 171.038H60.3857V176.465H49.2597V176.263L41.594 168.528V163.307ZM49.9386 175.786H59.7728V171.651H50.0045V175.786H49.9386ZM42.207 168.26L49.3295 175.313V171.445L43.2234 165.343L43.6967 164.866L49.8028 170.972H59.2995L52.177 163.919H42.207V168.26ZM46.4122 137.804C46.6838 137.804 47.0213 137.874 47.2928 137.874L50.2761 134.887V133.397C50.2761 131.768 51.6339 130.48 53.1934 130.48C54.7529 130.48 56.1106 131.768 56.1106 133.397V137.533L60.7892 142.215L53.1934 149.811L44.6471 141.264V147.231C42.7501 146.556 41.3923 144.725 41.3923 142.622C41.5281 139.977 43.6967 137.804 46.4122 137.804ZM55.5675 133.397C55.5675 132.109 54.5511 131.089 53.2632 131.089C51.9752 131.089 50.955 132.109 50.955 133.397V134.212L51.9054 133.262L55.5675 136.924V133.397ZM53.3291 148.996L60.0443 142.281L51.9752 134.212L51.0248 135.159V138.076C51.5679 138.212 51.9752 138.685 51.9752 139.298C51.9752 139.977 51.4321 140.586 50.6834 140.586C50.0045 140.586 49.3955 140.043 49.3955 139.298C49.3955 138.685 49.8028 138.212 50.3459 138.076V135.771L45.26 140.857L53.3291 148.996ZM50.3459 138.821C50.1403 138.956 50.0743 139.092 50.0743 139.364C50.0743 139.705 50.3459 139.977 50.6834 139.977C51.0248 139.977 51.2963 139.705 51.2963 139.364C51.2963 139.162 51.1606 138.956 51.0248 138.821V139.364H50.3459V138.821ZM46.4782 228.827C46.8855 228.284 47.3627 227.671 47.77 226.927C49.3295 224.215 50.6834 220.553 50.6834 220.553L50.955 219.738L51.2963 220.553C51.2963 220.619 52.7201 224.215 54.2796 226.927C54.6869 227.605 55.0943 228.214 55.5016 228.758C56.4482 230.115 57.2628 231.267 57.2628 233.098C57.2628 236.353 54.7529 238.591 50.955 238.591C47.1571 238.591 44.6471 236.353 44.6471 233.098C44.7169 231.267 45.5316 230.115 46.4782 228.827ZM50.955 237.916C53.7365 237.916 56.5839 236.423 56.5839 233.098C56.5839 231.473 55.8391 230.453 54.8886 229.165C54.4813 228.622 54.0779 228.013 53.6705 227.268C52.5145 225.231 51.4321 222.791 50.955 221.569C50.4817 222.791 49.4653 225.301 48.3092 227.268C47.9019 228.013 47.4286 228.622 47.0213 229.165C46.0708 230.453 45.326 231.473 45.326 233.032C45.326 236.423 48.1735 237.916 50.955 237.916ZM21.1808 219.804L27.0813 237.304H15.2104L21.1808 219.804ZM21.1808 221.841L16.1609 236.625H26.2007L21.1808 221.841ZM13.7867 132.377C14.6014 131.566 15.9591 131.566 16.7699 132.377L19.1441 134.751L20.0946 133.805L22.1312 135.837L21.3825 136.582L28.7766 143.976C29.2499 144.453 29.4555 145.062 29.4555 145.671C29.4555 146.35 29.1839 146.963 28.7766 147.367C28.3033 147.844 27.6904 148.045 27.0813 148.045C26.4024 148.045 25.7934 147.774 25.386 147.367L17.9919 139.977L17.2471 140.721L15.2104 138.685L16.1609 137.738L13.7867 135.364C12.972 134.549 12.972 133.192 13.7867 132.377ZM25.8593 146.893C26.5382 147.572 27.6904 147.572 28.3693 146.893C28.7106 146.556 28.9124 146.079 28.9124 145.671C28.9124 145.198 28.7106 144.725 28.3693 144.453L20.9752 136.99L18.4652 139.499L25.8593 146.893ZM27.6904 173.276L24.5714 176.399L28.7106 178.16C29.1839 178.366 29.6572 177.889 29.4555 177.415L27.6904 173.276ZM12.8363 164.664L15.9591 161.545L27.6904 173.276L24.5714 176.399L14.9389 166.767L14.4656 166.29L12.8363 164.664ZM13.7867 164.664L14.9389 165.816L17.1773 163.578L16.0251 162.426L13.7867 164.664ZM24.5714 175.449L26.8097 173.21L17.5846 164.051L15.3462 166.29L24.5714 175.449ZM12.972 87.3426L18.535 81.7798C16.9755 79.4057 17.2471 76.1509 19.2799 74.0484C20.4321 72.8962 21.9954 72.2174 23.6209 72.2174C25.2502 72.2174 26.8097 72.8303 27.9619 74.0484C30.3361 76.4225 30.3361 80.3561 27.9619 82.7302C26.8097 83.8823 25.2502 84.5612 23.6209 84.5612C22.3989 84.5612 21.2467 84.2237 20.2303 83.5448L14.6673 89.1077L12.972 87.3426ZM27.4886 82.2569C29.6572 80.0845 29.6572 76.6281 27.4886 74.5255C26.4722 73.5053 25.0446 72.8962 23.6209 72.8962C22.1312 72.8962 20.7734 73.4393 19.757 74.5255C17.5846 76.694 17.5846 80.1544 19.757 82.2569C20.7734 83.2733 22.1972 83.8823 23.6209 83.8823C25.1145 83.8823 26.4722 83.3431 27.4886 82.2569ZM29.6572 18.9084L30.2701 18.6369C29.8628 17.6205 29.2499 16.6701 28.3693 15.8555L27.896 16.3287C28.7106 17.1434 29.3197 18.024 29.6572 18.9084ZM26.4024 15.3124L26.7399 14.7693C25.7934 14.2262 24.7731 13.8188 23.6209 13.5512L23.4851 14.1602C24.5015 14.3619 25.5218 14.7693 26.4024 15.3124ZM30.0645 21.1468C30.0645 22.0274 29.8628 22.908 29.4555 23.7226L30.0645 23.9942C30.4719 23.0437 30.7434 22.0972 30.7434 21.1468C30.7434 21.011 30.7434 20.8752 30.7434 20.7395L30.0645 20.8054C30.0645 20.8752 30.0645 21.011 30.0645 21.1468ZM21.5881 13.8887V13.2098C21.4523 13.2098 21.3166 13.2098 21.111 13.2098C20.1644 13.2098 19.1441 13.3456 18.2635 13.5512L18.3993 14.1602C19.2799 13.9546 20.1644 13.8188 21.111 13.8188C21.3166 13.8887 21.4523 13.8887 21.5881 13.8887ZM14.1242 16.6701C14.8031 15.9214 15.6876 15.3124 16.704 14.905L16.4324 14.296C15.3462 14.7693 14.4656 15.4481 13.7207 16.193L14.1242 16.6701ZM12.8363 23.6567L12.2272 23.9282C12.7005 24.9446 13.3794 25.8252 14.3298 26.57L14.7371 26.0967C13.9225 25.4179 13.2436 24.6032 12.8363 23.6567ZM25.9951 27.1829L26.2666 27.726C27.283 27.1829 28.1675 26.5041 28.9124 25.6894L28.4391 25.2821C27.8261 26.0308 26.9455 26.6398 25.9951 27.1829ZM16.2966 27.1829L16.0251 27.726C16.9755 28.2691 18.0618 28.6066 19.2139 28.8083L19.2799 28.1333C18.1937 27.9976 17.1773 27.6562 16.2966 27.1829ZM11.6181 21.1468C11.6181 21.4183 11.6181 21.7558 11.6841 22.0274L12.2931 21.9614C12.2272 21.6899 12.2272 21.4183 12.2272 21.1468C12.2272 20.1265 12.4987 19.1102 12.972 18.2296L12.4289 17.8921C11.8858 18.9084 11.6181 19.9946 11.6181 21.1468ZM21.1808 28.3351V29.0139C22.333 29.0139 23.4192 28.8782 24.5015 28.5407L24.2998 27.9277C23.2834 28.1993 22.267 28.3351 21.1808 28.3351ZM19.3497 50.99L22.6045 47.7314L24.2998 49.4305L15.0087 58.7214L13.3134 57.0261L19.3497 50.99ZM22.6045 48.6818L20.2963 50.99L21.111 51.8047L23.4192 49.4965L22.6045 48.6818ZM26.0649 44.4767V42.9172H25.386V44.4767C25.6576 44.4767 25.8593 44.4767 26.0649 44.4767ZM27.5546 46.6491H29.1141V45.9702H27.5546C27.6244 46.172 27.6244 46.4435 27.5546 46.6491ZM23.9623 46.6491C23.8925 46.4435 23.8925 46.2418 23.9623 45.9702H22.3989V46.6491H23.9623ZM25.452 48.1387V49.7021H26.1309V48.1387C25.8593 48.1387 25.6576 48.1387 25.452 48.1387ZM23.8925 47.7314L24.3696 48.2086L25.7934 46.7849L27.896 48.8874L28.3693 48.4103L26.2666 46.3077L28.3693 44.2052L27.896 43.7319L25.7934 45.8345L23.6907 43.7319L23.2136 44.2052L25.3162 46.3077L23.8925 47.7314ZM42.1371 78.0518L43.5609 80.4919C44.5113 82.1871 44.9885 83.5448 44.9885 84.9026C44.9885 86.1207 45.26 87.1409 45.5316 88.0215C45.7333 88.6306 45.8691 89.1737 45.8691 89.581H46.548C46.548 89.0379 46.4122 88.4948 46.2066 87.8198C46.0049 87.0051 45.7333 86.0547 45.7333 84.9026C45.7333 83.4789 45.26 81.9854 44.2398 80.1544L42.816 77.7104C42.6803 77.5087 42.6803 77.2371 42.7501 76.9656C42.816 76.694 43.0216 76.5583 43.2932 76.4225C43.6307 76.2867 44.104 76.4923 44.3096 76.8298L45.9351 80.0186C46.1407 80.3561 46.4782 80.4919 46.8195 80.3561C47.1571 80.2203 47.3627 79.8828 47.2928 79.5414L46.0708 73.4393C46.0049 73.2337 46.0708 72.9661 46.2066 72.8303C46.3424 72.6247 46.548 72.4889 46.7497 72.4889C46.9553 72.423 47.2269 72.4889 47.3627 72.6247C47.5644 72.7605 47.7002 72.9661 47.7002 73.1678L48.7864 79.0022C48.8523 79.2738 49.0579 79.4755 49.3295 79.4057C49.6011 79.4057 49.8028 79.138 49.8028 78.8664L49.8726 72.0156C49.8726 71.6083 50.1403 71.201 50.5476 71.1312C50.8192 71.0652 51.0248 71.1312 51.2265 71.3368C51.4321 71.4725 51.4981 71.7441 51.4981 72.0156L51.5679 79.138C51.5679 79.3397 51.7696 79.5414 51.9752 79.6113C52.177 79.6113 52.4485 79.4755 52.4485 79.2738L53.6705 73.2337C53.7365 72.9661 53.8722 72.7605 54.0779 72.6247C54.2796 72.4889 54.5511 72.4889 54.7529 72.5587C55.1602 72.6945 55.3658 73.1678 55.296 73.5751L54.0779 80.2901C54.008 80.6974 54.0779 81.1048 54.3455 81.5082C54.6171 81.9155 55.0244 82.1871 55.5016 82.1871C55.9749 82.2569 56.4482 82.0513 56.7895 81.7138L57.8059 80.6974C58.1473 80.3561 58.6206 80.2901 58.9581 80.5617C59.1637 80.6974 59.2995 80.8992 59.2995 81.1707C59.2995 81.4423 59.2297 81.644 59.0279 81.8496L57.3986 83.4789C56.518 84.3595 55.23 86.0547 54.6869 87.2767C54.3455 88.0215 54.1438 88.9021 54.1438 89.6508H54.8227C54.8227 88.9719 55.0244 88.2232 55.296 87.5482C55.8391 86.3922 57.0611 84.7668 57.8758 83.9522L59.5012 82.3229C59.8426 81.9854 59.9784 81.578 59.9086 81.1707C59.8426 80.7634 59.637 80.3561 59.2995 80.0845C58.6866 79.6772 57.8758 79.747 57.3326 80.2901L56.3124 81.3065C56.1106 81.5082 55.8391 81.578 55.5675 81.578C55.296 81.578 55.0244 81.3763 54.8886 81.1707C54.7529 80.969 54.6869 80.6974 54.7529 80.4259L55.9749 73.7109C56.1106 72.9661 55.7033 72.2174 55.0244 71.9458C54.6171 71.81 54.1438 71.81 53.8063 72.0816C53.399 72.2872 53.1274 72.6945 53.0576 73.098L52.177 77.3729L52.1071 72.0156C52.1071 71.6083 51.9054 71.1312 51.5679 70.8635C51.2265 70.592 50.7532 70.4562 50.3459 70.5221C49.667 70.6579 49.1239 71.2669 49.1239 72.0816L49.0579 77.7802L48.1735 73.098C48.1075 72.6945 47.9019 72.3531 47.5644 72.1514C47.2269 71.9458 46.8195 71.81 46.4782 71.9458C46.0708 72.0156 45.7333 72.2174 45.5316 72.5587C45.326 72.8962 45.1902 73.3036 45.26 73.7109L46.4782 79.813C46.4782 79.813 46.4782 79.8828 46.4122 79.8828C46.3424 79.8828 46.3424 79.8828 46.3424 79.813L44.7169 76.6281C44.3096 75.9492 43.5609 75.6777 42.8859 75.8794C42.4785 76.0152 42.1371 76.3566 42.0014 76.7639C41.8656 77.1712 41.8656 77.6445 42.1371 78.0518ZM42.3428 113.861H45.6635V105.18H54.3455V101.859H56.3124V105.18H59.637V107.146H56.3124V115.828H47.6342V119.153H45.6635V115.828H42.3428V113.861ZM48.1075 107.146L54.3455 113.388V107.146H48.1075ZM53.8722 113.861L47.6342 107.623V113.861H53.8722ZM14.8031 103.484V105.858H19.0083V117.523H22.0614V105.858H26.2666V103.484H14.8031ZM22.8062 205.563C22.8761 205.629 23.0118 205.765 23.1476 205.835C23.555 206.172 24.0981 206.378 24.6373 206.444C25.0446 206.51 25.452 206.58 25.8593 206.58C27.5546 206.58 29.1839 205.971 29.1839 205.971C29.1839 205.971 28.7106 205.699 28.1675 205.222C28.0317 205.086 27.896 205.02 27.7602 204.885C27.3529 204.477 27.0115 204.07 26.8097 203.527C26.3365 202.037 25.2502 200.679 23.8925 200.679C23.8265 200.679 23.7567 200.679 23.6907 200.679C23.4851 200.679 23.2834 200.745 23.0778 200.815C21.111 201.766 21.1808 204.07 22.8062 205.563ZM13.9884 195.051L20.3661 202.169C20.6377 201.087 21.3166 200.202 22.4687 199.663C22.5347 199.593 22.6045 199.593 22.7403 199.593L15.9591 193.15C15.416 192.607 14.6014 192.607 14.0583 193.15C13.5151 193.693 13.5151 194.507 13.9884 195.051ZM57.0611 200.136L58.415 198.779L55.7731 196.133L54.4154 197.491L57.0611 200.136ZM45.326 202.984C46.4782 202.984 47.0213 204.004 47.5644 205.02C48.0377 205.971 48.5148 206.851 49.3955 206.851C51.0248 206.851 51.2265 205.765 51.3623 203.934C51.3623 203.663 51.4321 203.325 51.4321 203.053L44.1738 195.795C43.2932 194.915 43.2932 193.557 44.1738 192.676C45.0544 191.792 46.4122 191.792 47.2928 192.676L57.8059 203.189C58.6206 204.004 58.8922 206.781 58.9581 207.123L59.0279 207.53L58.6206 207.46C58.2831 207.46 55.5016 207.123 54.6869 206.308L51.9752 203.597C51.9752 203.732 51.9752 203.798 51.9752 203.934C51.8395 205.494 51.7037 207.46 49.3955 207.46C48.1075 207.46 47.4984 206.308 46.9553 205.292C46.4782 204.407 46.0708 203.597 45.326 203.597C44.1738 203.597 43.9682 204.885 43.9682 204.95L43.3591 204.885C43.429 204.206 43.9682 202.984 45.326 202.984ZM55.23 205.835C55.6374 206.242 57.1969 206.58 58.349 206.716C58.2133 205.563 57.8758 204.004 57.4684 203.597L54.6869 200.815L53.6007 201.901L52.5145 202.984L55.23 205.835ZM35.7633 36.4078V65.5024H6.32666V66.1812H35.7633V95.2796H6.32666V95.9585H35.7633V125.053H6.32666V125.732H35.7633V154.83H6.32666V155.509H35.7633V184.604H6.32666V185.283H35.7633V214.381H6.32666V215.056H35.7633V244.426H36.4422V215.056H65.8789V214.381H36.4422V185.283H65.8789V184.604H36.4422V155.509H65.8789V154.83H36.4422V125.732H65.8789V125.053H36.4422V95.9585H65.8789V95.2796H36.4422V66.1812H65.8789V65.5024H36.4422V36.4078H65.8789V35.729H36.4422V6.35901H35.7633V35.7949H6.32666V36.4738H35.7633V36.4078Z" fill="black"/>
</svg>
